# This file uses centimeters as units for non-parametric coordinates.

mtllib mc_chicken.mtl
g default
v -0.125122 6.583004 0.970073
v 0.125122 6.583004 0.970073
v -0.125122 7.047072 0.970073
v 0.125122 7.047072 0.970073
v -0.125122 7.047072 0.729386
v 0.125122 7.047072 0.729386
v -0.125122 6.583004 0.729386
v 0.125122 6.583004 0.729386
v -0.125122 4.875431 -0.718053
v 0.125122 4.875431 -0.718053
v -0.125122 6.359724 -0.718053
v 0.125122 6.359724 -0.718053
v -0.125122 6.359724 -1.436858
v 0.125122 6.359724 -1.436858
v -0.125122 4.875431 -1.436858
v 0.125122 4.875431 -1.436858
v -0.125122 4.410240 -0.206803
v 0.125122 4.410240 -0.206803
v -0.125122 7.103903 -0.206803
v 0.125122 7.103903 -0.206803
v -0.125122 7.103903 -0.753652
v 0.125122 7.103903 -0.753652
v -0.125122 4.410240 -0.753652
v 0.125122 4.410240 -0.753652
v -0.125122 4.145404 0.989790
v 0.125122 4.145404 0.989790
v -0.125122 4.395648 0.989790
v 0.125122 4.395648 0.989790
v -0.125122 4.395648 0.733255
v 0.125122 4.395648 0.733255
v -0.125122 4.145404 0.733255
v 0.125122 4.145404 0.733255
v -0.125122 4.163510 0.734518
v 0.125122 4.163510 0.734518
v -0.125122 7.054023 0.734518
v 0.125122 7.054023 0.734518
v -0.125122 7.054023 -0.231724
v 0.125122 7.054023 -0.231724
v -0.125122 4.163510 -0.231724
v 0.125122 4.163510 -0.231724
v -0.125122 3.915924 0.990143
v 0.125122 3.915924 0.990143
v -0.125122 4.166167 0.990143
v 0.125122 4.166167 0.990143
v -0.125122 4.166167 0.023901
v 0.125122 4.166167 0.023901
v -0.125122 3.915924 0.023901
v 0.125122 3.915924 0.023901
v -0.125122 4.157623 -0.227345
v 0.125122 4.157623 -0.227345
v -0.125122 4.411939 -0.227345
v 0.125122 4.411939 -0.227345
v -0.125122 4.411939 -0.468031
v 0.125122 4.411939 -0.468031
v -0.125122 4.157623 -0.468031
v 0.125122 4.157623 -0.468031
v -0.125122 4.383100 1.451849
v 0.125122 4.383100 1.451849
v -0.125122 5.867393 1.451849
v 0.125122 5.867393 1.451849
v -0.125122 5.867393 0.733044
v 0.125122 5.867393 0.733044
v -0.125122 4.383100 0.733044
v 0.125122 4.383100 0.733044
v -0.125122 5.373368 -1.430872
v 0.125122 5.373368 -1.430872
v -0.125122 6.106244 -1.430872
v 0.125122 6.106244 -1.430872
v -0.125122 6.106244 -1.671558
v 0.125122 6.106244 -1.671558
v -0.125122 5.373368 -1.671558
v 0.125122 5.373368 -1.671558
v -0.125122 7.045122 0.734518
v 0.125122 7.045122 0.734518
v -0.125122 7.295365 0.734518
v 0.125122 7.295365 0.734518
v -0.125122 7.295365 -0.231724
v 0.125122 7.295365 -0.231724
v -0.125122 7.045122 -0.231724
v 0.125122 7.045122 -0.231724
v -0.125122 6.344743 -0.734414
v 0.125122 6.344743 -0.734414
v -0.125122 6.594986 -0.734414
v 0.125122 6.594986 -0.734414
v -0.125122 6.594986 -1.195035
v 0.125122 6.594986 -1.195035
v -0.125122 6.344743 -1.195035
v 0.125122 6.344743 -1.195035
v -0.125122 6.583004 -0.740524
v 0.125122 6.583004 -0.740524
v -0.125122 6.833248 -0.740524
v 0.125122 6.833248 -0.740524
v -0.125122 6.833248 -0.981210
v 0.125122 6.833248 -0.981210
v -0.125122 6.583004 -0.981210
v 0.125122 6.583004 -0.981210
v -0.125122 4.628037 -0.948239
v 0.125122 4.628037 -0.948239
v -0.125122 4.878280 -0.948239
v 0.125122 4.878280 -0.948239
v -0.125122 4.878280 -1.188926
v 0.125122 4.878280 -1.188926
v -0.125122 4.628037 -1.188926
v 0.125122 4.628037 -1.188926
v -0.125122 4.628037 -0.746633
v 0.125122 4.628037 -0.746633
v -0.125122 4.878280 -0.746633
v 0.125122 4.878280 -0.746633
v -0.125122 4.878280 -0.987320
v 0.125122 4.878280 -0.987320
v -0.125122 4.628037 -0.987320
v 0.125122 4.628037 -0.987320
v -0.125122 5.859881 1.288424
v 0.125122 5.859881 1.288424
v -0.125122 6.584221 1.288424
v 0.125122 6.584221 1.288424
v -0.125122 6.584221 0.733058
v 0.125122 6.584221 0.733058
v -0.125122 5.859881 0.733058
v 0.125122 5.859881 0.733058
vt 0.806142 0.601142
vt 0.846292 0.601142
vt 0.846292 0.678556
vt 0.806142 0.678556
vt 0.760204 0.802885
vt 0.800354 0.802885
vt 0.800354 0.880299
vt 0.760204 0.880299
vt 0.818277 0.001992
vt 0.938186 0.001992
vt 0.938186 0.249597
vt 0.818277 0.249597
vt 0.821447 0.253362
vt 0.941356 0.253362
vt 0.941356 0.500967
vt 0.821447 0.500967
vt 0.527822 0.001992
vt 0.619046 0.001992
vt 0.619046 0.451341
vt 0.527822 0.451341
vt 0.625253 0.001992
vt 0.716477 0.001992
vt 0.716477 0.451341
vt 0.625253 0.451341
vt 0.427481 0.873867
vt 0.427481 0.831073
vt 0.469226 0.831073
vt 0.469226 0.873867
vt 0.379949 0.820285
vt 0.379949 0.777491
vt 0.421694 0.777491
vt 0.421694 0.820285
vt 0.097655 0.001992
vt 0.258841 0.001992
vt 0.258841 0.484179
vt 0.097655 0.484179
vt 0.264943 0.001992
vt 0.426128 0.001992
vt 0.426128 0.484179
vt 0.264943 0.484179
vt 0.237332 0.649129
vt 0.237332 0.487943
vt 0.279077 0.487943
vt 0.279077 0.649129
vt 0.189801 0.649129
vt 0.189801 0.487943
vt 0.231545 0.487943
vt 0.231545 0.649129
vt 0.238948 0.777491
vt 0.279098 0.777491
vt 0.279098 0.819915
vt 0.238948 0.819915
vt 0.193010 0.778915
vt 0.233161 0.778915
vt 0.233161 0.821339
vt 0.193010 0.821339
vt 0.600688 0.455105
vt 0.720596 0.455105
vt 0.720596 0.702711
vt 0.600688 0.702711
vt 0.474992 0.455106
vt 0.594900 0.455106
vt 0.594900 0.702711
vt 0.474992 0.702711
vt 0.145452 0.652894
vt 0.185602 0.652894
vt 0.185602 0.775150
vt 0.145452 0.775150
vt 0.191410 0.652894
vt 0.231560 0.652894
vt 0.231560 0.775150
vt 0.191410 0.775150
vt 0.047205 0.649129
vt 0.047205 0.487943
vt 0.088950 0.487943
vt 0.088950 0.649129
vt 0.001879 0.814079
vt 0.001879 0.652894
vt 0.043624 0.652894
vt 0.043624 0.814079
vt 0.617608 0.906989
vt 0.617608 0.830149
vt 0.659353 0.830149
vt 0.659353 0.906989
vt 0.570076 0.906989
vt 0.570076 0.830149
vt 0.611821 0.830149
vt 0.611821 0.906989
vt 0.660181 0.910753
vt 0.700332 0.910753
vt 0.700332 0.952498
vt 0.660181 0.952498
vt 0.706139 0.910753
vt 0.746290 0.910753
vt 0.746290 0.952498
vt 0.706139 0.952498
vt 0.901205 0.726410
vt 0.941356 0.726410
vt 0.941356 0.768155
vt 0.901205 0.768155
vt 0.855268 0.727831
vt 0.895418 0.727831
vt 0.895418 0.769575
vt 0.855268 0.769575
vt 0.622391 0.956263
vt 0.662542 0.956263
vt 0.662542 0.998008
vt 0.622391 0.998008
vt 0.576453 0.956263
vt 0.616604 0.956263
vt 0.616604 0.998008
vt 0.576453 0.998008
vt 0.332960 0.652894
vt 0.425605 0.652894
vt 0.425605 0.773726
vt 0.332960 0.773726
vt 0.432230 0.706476
vt 0.524874 0.706476
vt 0.524874 0.827308
vt 0.432230 0.827308
vt 0.147072 0.820659
vt 0.147072 0.778914
vt 0.187223 0.778914
vt 0.187223 0.820659
vt 0.101135 0.820660
vt 0.101135 0.778915
vt 0.141285 0.778915
vt 0.141285 0.820660
vt 0.531499 0.706476
vt 0.573244 0.706476
vt 0.573244 0.826384
vt 0.531499 0.826384
vt 0.579295 0.706476
vt 0.621040 0.706476
vt 0.621040 0.826384
vt 0.579295 0.826384
vt 0.818277 0.504732
vt 0.860022 0.504732
vt 0.860022 0.595956
vt 0.818277 0.595956
vt 0.866073 0.504732
vt 0.907818 0.504732
vt 0.907818 0.595956
vt 0.866073 0.595956
vt 0.522545 0.831073
vt 0.564289 0.831073
vt 0.564289 0.873867
vt 0.522545 0.873867
vt 0.475013 0.831073
vt 0.516757 0.831073
vt 0.516757 0.873867
vt 0.475013 0.873867
vt 0.427460 0.487943
vt 0.469205 0.487943
vt 0.469205 0.649129
vt 0.427460 0.649129
vt 0.379928 0.487943
vt 0.421673 0.487943
vt 0.421673 0.649129
vt 0.379928 0.649129
vt 0.332396 0.487943
vt 0.374141 0.487943
vt 0.374141 0.649129
vt 0.332396 0.649129
vt 0.284864 0.487943
vt 0.326609 0.487943
vt 0.326609 0.649129
vt 0.284864 0.649129
vt 0.097655 0.866169
vt 0.097655 0.824425
vt 0.137806 0.824425
vt 0.137806 0.866169
vt 0.143613 0.866169
vt 0.143613 0.824425
vt 0.183764 0.824425
vt 0.183764 0.866169
vt 0.627091 0.706476
vt 0.668836 0.706476
vt 0.668836 0.826384
vt 0.627091 0.826384
vt 0.674888 0.706476
vt 0.716633 0.706476
vt 0.716633 0.826384
vt 0.674888 0.826384
vt 0.189571 0.866849
vt 0.189571 0.825104
vt 0.229722 0.825104
vt 0.229722 0.866849
vt 0.235529 0.866848
vt 0.235529 0.825104
vt 0.275680 0.825104
vt 0.275680 0.866848
vt 0.142269 0.487943
vt 0.184014 0.487943
vt 0.184014 0.649129
vt 0.142269 0.649129
vt 0.094737 0.487943
vt 0.136482 0.487943
vt 0.136482 0.649129
vt 0.094737 0.649129
vt 0.712672 0.830149
vt 0.754417 0.830149
vt 0.754417 0.906989
vt 0.712672 0.906989
vt 0.665140 0.830149
vt 0.706885 0.830149
vt 0.706885 0.906989
vt 0.665140 0.906989
vt 0.520469 0.919377
vt 0.520469 0.877632
vt 0.560620 0.877632
vt 0.560620 0.919377
vt 0.614223 0.952498
vt 0.614223 0.910753
vt 0.654374 0.910753
vt 0.654374 0.952498
vt 0.799894 0.925809
vt 0.799894 0.884064
vt 0.840044 0.884064
vt 0.840044 0.925809
vt 0.893648 0.722645
vt 0.893648 0.680900
vt 0.933798 0.680900
vt 0.933798 0.722645
vt 0.761798 0.998008
vt 0.761798 0.956263
vt 0.801949 0.956263
vt 0.801949 0.998008
vt 0.668329 0.998008
vt 0.668329 0.956263
vt 0.708479 0.956263
vt 0.708479 0.998008
vt 0.722684 0.706476
vt 0.764429 0.706476
vt 0.764429 0.799120
vt 0.722684 0.799120
vt 0.770480 0.504732
vt 0.812225 0.504732
vt 0.812225 0.597377
vt 0.770480 0.597377
vt 0.899611 0.599721
vt 0.941356 0.599721
vt 0.941356 0.677135
vt 0.899611 0.677135
vt 0.852079 0.599721
vt 0.893824 0.599721
vt 0.893824 0.677135
vt 0.852079 0.677135
vt 0.722684 0.001992
vt 0.764429 0.001992
vt 0.764429 0.249597
vt 0.722684 0.249597
vt 0.770480 0.001992
vt 0.812225 0.001992
vt 0.812225 0.249597
vt 0.770480 0.249597
vt 0.432230 0.001992
vt 0.473974 0.001992
vt 0.473974 0.451341
vt 0.432230 0.451341
vt 0.480026 0.001992
vt 0.521771 0.001992
vt 0.521771 0.451341
vt 0.480026 0.451341
vt 0.053603 0.820660
vt 0.053603 0.778915
vt 0.095348 0.778915
vt 0.095348 0.820660
vt 0.006071 0.859589
vt 0.006071 0.817844
vt 0.047816 0.817844
vt 0.047816 0.859589
vt 0.001879 0.001992
vt 0.043624 0.001992
vt 0.043624 0.484179
vt 0.001879 0.484179
vt 0.049859 0.001992
vt 0.091604 0.001992
vt 0.091604 0.484179
vt 0.049859 0.484179
vt 0.001879 0.905098
vt 0.001879 0.863354
vt 0.043624 0.863354
vt 0.043624 0.905098
vt 0.049859 0.905098
vt 0.049859 0.863354
vt 0.091604 0.863354
vt 0.091604 0.905098
vt 0.332417 0.777491
vt 0.374162 0.777491
vt 0.374162 0.819915
vt 0.332417 0.819915
vt 0.284885 0.777491
vt 0.326630 0.777491
vt 0.326630 0.819915
vt 0.284885 0.819915
vt 0.773915 0.253362
vt 0.815660 0.253362
vt 0.815660 0.500968
vt 0.773915 0.500968
vt 0.726383 0.253362
vt 0.768128 0.253362
vt 0.768128 0.500968
vt 0.726383 0.500968
vt 0.049859 0.652894
vt 0.091604 0.652894
vt 0.091604 0.775150
vt 0.049859 0.775150
vt 0.097655 0.652894
vt 0.139400 0.652894
vt 0.139400 0.775150
vt 0.097655 0.775150
vt 0.281487 0.823680
vt 0.323232 0.823680
vt 0.323232 0.865425
vt 0.281487 0.865425
vt 0.329284 0.823680
vt 0.371028 0.823680
vt 0.371028 0.865425
vt 0.329284 0.865425
vt 0.377080 0.824050
vt 0.418825 0.824050
vt 0.418825 0.865795
vt 0.377080 0.865795
vt 0.424876 0.919377
vt 0.424876 0.877632
vt 0.466621 0.877632
vt 0.466621 0.919377
vt 0.472673 0.877632
vt 0.514417 0.877632
vt 0.514417 0.919377
vt 0.472673 0.919377
vt 0.566427 0.910753
vt 0.608172 0.910753
vt 0.608172 0.952498
vt 0.566427 0.952498
vt 0.752097 0.910753
vt 0.793842 0.910753
vt 0.793842 0.952498
vt 0.752097 0.952498
vt 0.845852 0.682321
vt 0.887596 0.682321
vt 0.887596 0.724066
vt 0.845852 0.724066
vt 0.807736 0.929574
vt 0.849481 0.929574
vt 0.849481 0.971319
vt 0.807736 0.971319
vt 0.714266 0.956263
vt 0.756011 0.956263
vt 0.756011 0.998008
vt 0.714266 0.998008
vt 0.237368 0.652894
vt 0.279113 0.652894
vt 0.279113 0.773726
vt 0.237368 0.773726
vt 0.285164 0.652894
vt 0.326909 0.652894
vt 0.326909 0.773726
vt 0.285164 0.773726
vn 0.000000 0.000000 1.000000
vn 0.000000 0.000000 1.000000
vn 0.000000 0.000000 1.000000
vn 0.000000 0.000000 1.000000
vn 0.000000 1.000000 0.000000
vn 0.000000 1.000000 0.000000
vn 0.000000 1.000000 0.000000
vn 0.000000 1.000000 0.000000
vn 0.000000 0.000000 -1.000000
vn 0.000000 0.000000 -1.000000
vn 0.000000 0.000000 -1.000000
vn 0.000000 0.000000 -1.000000
vn 0.000000 -1.000000 0.000000
vn 0.000000 -1.000000 0.000000
vn 0.000000 -1.000000 0.000000
vn 0.000000 -1.000000 0.000000
vn 1.000000 0.000000 0.000000
vn 1.000000 0.000000 0.000000
vn 1.000000 0.000000 0.000000
vn 1.000000 0.000000 0.000000
vn -1.000000 0.000000 0.000000
vn -1.000000 0.000000 0.000000
vn -1.000000 0.000000 0.000000
vn -1.000000 0.000000 0.000000
vn 0.000000 0.000000 1.000000
vn 0.000000 0.000000 1.000000
vn 0.000000 0.000000 1.000000
vn 0.000000 0.000000 1.000000
vn 0.000000 1.000000 0.000000
vn 0.000000 1.000000 0.000000
vn 0.000000 1.000000 0.000000
vn 0.000000 1.000000 0.000000
vn 0.000000 0.000000 -1.000000
vn 0.000000 0.000000 -1.000000
vn 0.000000 0.000000 -1.000000
vn 0.000000 0.000000 -1.000000
vn 0.000000 -1.000000 0.000000
vn 0.000000 -1.000000 0.000000
vn 0.000000 -1.000000 0.000000
vn 0.000000 -1.000000 0.000000
vn 1.000000 0.000000 0.000000
vn 1.000000 0.000000 0.000000
vn 1.000000 0.000000 0.000000
vn 1.000000 0.000000 0.000000
vn -1.000000 0.000000 0.000000
vn -1.000000 0.000000 0.000000
vn -1.000000 0.000000 0.000000
vn -1.000000 0.000000 0.000000
vn 0.000000 0.000000 1.000000
vn 0.000000 0.000000 1.000000
vn 0.000000 0.000000 1.000000
vn 0.000000 0.000000 1.000000
vn 0.000000 1.000000 0.000000
vn 0.000000 1.000000 0.000000
vn 0.000000 1.000000 0.000000
vn 0.000000 1.000000 0.000000
vn 0.000000 0.000000 -1.000000
vn 0.000000 0.000000 -1.000000
vn 0.000000 0.000000 -1.000000
vn 0.000000 0.000000 -1.000000
vn 0.000000 -1.000000 0.000000
vn 0.000000 -1.000000 0.000000
vn 0.000000 -1.000000 0.000000
vn 0.000000 -1.000000 0.000000
vn 1.000000 0.000000 0.000000
vn 1.000000 0.000000 0.000000
vn 1.000000 0.000000 0.000000
vn 1.000000 0.000000 0.000000
vn -1.000000 0.000000 0.000000
vn -1.000000 0.000000 0.000000
vn -1.000000 0.000000 0.000000
vn -1.000000 0.000000 0.000000
vn 0.000000 0.000000 1.000000
vn 0.000000 0.000000 1.000000
vn 0.000000 0.000000 1.000000
vn 0.000000 0.000000 1.000000
vn 0.000000 1.000000 0.000000
vn 0.000000 1.000000 0.000000
vn 0.000000 1.000000 0.000000
vn 0.000000 1.000000 0.000000
vn 0.000000 0.000000 -1.000000
vn 0.000000 0.000000 -1.000000
vn 0.000000 0.000000 -1.000000
vn 0.000000 0.000000 -1.000000
vn 0.000000 -1.000000 0.000000
vn 0.000000 -1.000000 0.000000
vn 0.000000 -1.000000 0.000000
vn 0.000000 -1.000000 0.000000
vn 1.000000 0.000000 0.000000
vn 1.000000 0.000000 0.000000
vn 1.000000 0.000000 0.000000
vn 1.000000 0.000000 0.000000
vn -1.000000 0.000000 0.000000
vn -1.000000 0.000000 0.000000
vn -1.000000 0.000000 0.000000
vn -1.000000 0.000000 0.000000
vn 0.000000 0.000000 1.000000
vn 0.000000 0.000000 1.000000
vn 0.000000 0.000000 1.000000
vn 0.000000 0.000000 1.000000
vn 0.000000 1.000000 0.000000
vn 0.000000 1.000000 0.000000
vn 0.000000 1.000000 0.000000
vn 0.000000 1.000000 0.000000
vn 0.000000 0.000000 -1.000000
vn 0.000000 0.000000 -1.000000
vn 0.000000 0.000000 -1.000000
vn 0.000000 0.000000 -1.000000
vn 0.000000 -1.000000 0.000000
vn 0.000000 -1.000000 0.000000
vn 0.000000 -1.000000 0.000000
vn 0.000000 -1.000000 0.000000
vn 1.000000 0.000000 0.000000
vn 1.000000 0.000000 0.000000
vn 1.000000 0.000000 0.000000
vn 1.000000 0.000000 0.000000
vn -1.000000 0.000000 0.000000
vn -1.000000 0.000000 0.000000
vn -1.000000 0.000000 0.000000
vn -1.000000 0.000000 0.000000
vn 0.000000 0.000000 1.000000
vn 0.000000 0.000000 1.000000
vn 0.000000 0.000000 1.000000
vn 0.000000 0.000000 1.000000
vn 0.000000 1.000000 0.000000
vn 0.000000 1.000000 0.000000
vn 0.000000 1.000000 0.000000
vn 0.000000 1.000000 0.000000
vn 0.000000 0.000000 -1.000000
vn 0.000000 0.000000 -1.000000
vn 0.000000 0.000000 -1.000000
vn 0.000000 0.000000 -1.000000
vn 0.000000 -1.000000 0.000000
vn 0.000000 -1.000000 0.000000
vn 0.000000 -1.000000 0.000000
vn 0.000000 -1.000000 0.000000
vn 1.000000 0.000000 0.000000
vn 1.000000 0.000000 0.000000
vn 1.000000 0.000000 0.000000
vn 1.000000 0.000000 0.000000
vn -1.000000 0.000000 0.000000
vn -1.000000 0.000000 0.000000
vn -1.000000 0.000000 0.000000
vn -1.000000 0.000000 0.000000
vn 0.000000 0.000000 1.000000
vn 0.000000 0.000000 1.000000
vn 0.000000 0.000000 1.000000
vn 0.000000 0.000000 1.000000
vn 0.000000 1.000000 0.000000
vn 0.000000 1.000000 0.000000
vn 0.000000 1.000000 0.000000
vn 0.000000 1.000000 0.000000
vn 0.000000 0.000000 -1.000000
vn 0.000000 0.000000 -1.000000
vn 0.000000 0.000000 -1.000000
vn 0.000000 0.000000 -1.000000
vn 0.000000 -1.000000 0.000000
vn 0.000000 -1.000000 0.000000
vn 0.000000 -1.000000 0.000000
vn 0.000000 -1.000000 0.000000
vn 1.000000 0.000000 0.000000
vn 1.000000 0.000000 0.000000
vn 1.000000 0.000000 0.000000
vn 1.000000 0.000000 0.000000
vn -1.000000 0.000000 0.000000
vn -1.000000 0.000000 0.000000
vn -1.000000 0.000000 0.000000
vn -1.000000 0.000000 0.000000
vn 0.000000 0.000000 1.000000
vn 0.000000 0.000000 1.000000
vn 0.000000 0.000000 1.000000
vn 0.000000 0.000000 1.000000
vn 0.000000 1.000000 0.000000
vn 0.000000 1.000000 0.000000
vn 0.000000 1.000000 0.000000
vn 0.000000 1.000000 0.000000
vn 0.000000 0.000000 -1.000000
vn 0.000000 0.000000 -1.000000
vn 0.000000 0.000000 -1.000000
vn 0.000000 0.000000 -1.000000
vn 0.000000 -1.000000 0.000000
vn 0.000000 -1.000000 0.000000
vn 0.000000 -1.000000 0.000000
vn 0.000000 -1.000000 0.000000
vn 1.000000 0.000000 0.000000
vn 1.000000 0.000000 0.000000
vn 1.000000 0.000000 0.000000
vn 1.000000 0.000000 0.000000
vn -1.000000 0.000000 0.000000
vn -1.000000 0.000000 0.000000
vn -1.000000 0.000000 0.000000
vn -1.000000 0.000000 0.000000
vn 0.000000 0.000000 1.000000
vn 0.000000 0.000000 1.000000
vn 0.000000 0.000000 1.000000
vn 0.000000 0.000000 1.000000
vn 0.000000 1.000000 0.000000
vn 0.000000 1.000000 0.000000
vn 0.000000 1.000000 0.000000
vn 0.000000 1.000000 0.000000
vn 0.000000 0.000000 -1.000000
vn 0.000000 0.000000 -1.000000
vn 0.000000 0.000000 -1.000000
vn 0.000000 0.000000 -1.000000
vn 0.000000 -1.000000 0.000000
vn 0.000000 -1.000000 0.000000
vn 0.000000 -1.000000 0.000000
vn 0.000000 -1.000000 0.000000
vn 1.000000 0.000000 0.000000
vn 1.000000 0.000000 0.000000
vn 1.000000 0.000000 0.000000
vn 1.000000 0.000000 0.000000
vn -1.000000 0.000000 0.000000
vn -1.000000 0.000000 0.000000
vn -1.000000 0.000000 0.000000
vn -1.000000 0.000000 0.000000
vn 0.000000 0.000000 1.000000
vn 0.000000 0.000000 1.000000
vn 0.000000 0.000000 1.000000
vn 0.000000 0.000000 1.000000
vn 0.000000 1.000000 0.000000
vn 0.000000 1.000000 0.000000
vn 0.000000 1.000000 0.000000
vn 0.000000 1.000000 0.000000
vn 0.000000 0.000000 -1.000000
vn 0.000000 0.000000 -1.000000
vn 0.000000 0.000000 -1.000000
vn 0.000000 0.000000 -1.000000
vn 0.000000 -1.000000 0.000000
vn 0.000000 -1.000000 0.000000
vn 0.000000 -1.000000 0.000000
vn 0.000000 -1.000000 0.000000
vn 1.000000 0.000000 0.000000
vn 1.000000 0.000000 0.000000
vn 1.000000 0.000000 0.000000
vn 1.000000 0.000000 0.000000
vn -1.000000 0.000000 0.000000
vn -1.000000 0.000000 0.000000
vn -1.000000 0.000000 0.000000
vn -1.000000 0.000000 0.000000
vn 0.000000 0.000000 1.000000
vn 0.000000 0.000000 1.000000
vn 0.000000 0.000000 1.000000
vn 0.000000 0.000000 1.000000
vn 0.000000 1.000000 0.000000
vn 0.000000 1.000000 0.000000
vn 0.000000 1.000000 0.000000
vn 0.000000 1.000000 0.000000
vn 0.000000 0.000000 -1.000000
vn 0.000000 0.000000 -1.000000
vn 0.000000 0.000000 -1.000000
vn 0.000000 0.000000 -1.000000
vn 0.000000 -1.000000 0.000000
vn 0.000000 -1.000000 0.000000
vn 0.000000 -1.000000 0.000000
vn 0.000000 -1.000000 0.000000
vn 1.000000 0.000000 0.000000
vn 1.000000 0.000000 0.000000
vn 1.000000 0.000000 0.000000
vn 1.000000 0.000000 0.000000
vn -1.000000 0.000000 0.000000
vn -1.000000 0.000000 0.000000
vn -1.000000 0.000000 0.000000
vn -1.000000 0.000000 0.000000
vn 0.000000 0.000000 1.000000
vn 0.000000 0.000000 1.000000
vn 0.000000 0.000000 1.000000
vn 0.000000 0.000000 1.000000
vn 0.000000 1.000000 0.000000
vn 0.000000 1.000000 0.000000
vn 0.000000 1.000000 0.000000
vn 0.000000 1.000000 0.000000
vn 0.000000 0.000000 -1.000000
vn 0.000000 0.000000 -1.000000
vn 0.000000 0.000000 -1.000000
vn 0.000000 0.000000 -1.000000
vn 0.000000 -1.000000 0.000000
vn 0.000000 -1.000000 0.000000
vn 0.000000 -1.000000 0.000000
vn 0.000000 -1.000000 0.000000
vn 1.000000 0.000000 0.000000
vn 1.000000 0.000000 0.000000
vn 1.000000 0.000000 0.000000
vn 1.000000 0.000000 0.000000
vn -1.000000 0.000000 0.000000
vn -1.000000 0.000000 0.000000
vn -1.000000 0.000000 0.000000
vn -1.000000 0.000000 0.000000
vn 0.000000 0.000000 1.000000
vn 0.000000 0.000000 1.000000
vn 0.000000 0.000000 1.000000
vn 0.000000 0.000000 1.000000
vn 0.000000 1.000000 0.000000
vn 0.000000 1.000000 0.000000
vn 0.000000 1.000000 0.000000
vn 0.000000 1.000000 0.000000
vn 0.000000 0.000000 -1.000000
vn 0.000000 0.000000 -1.000000
vn 0.000000 0.000000 -1.000000
vn 0.000000 0.000000 -1.000000
vn 0.000000 -1.000000 0.000000
vn 0.000000 -1.000000 0.000000
vn 0.000000 -1.000000 0.000000
vn 0.000000 -1.000000 0.000000
vn 1.000000 0.000000 0.000000
vn 1.000000 0.000000 0.000000
vn 1.000000 0.000000 0.000000
vn 1.000000 0.000000 0.000000
vn -1.000000 0.000000 0.000000
vn -1.000000 0.000000 0.000000
vn -1.000000 0.000000 0.000000
vn -1.000000 0.000000 0.000000
vn 0.000000 0.000000 1.000000
vn 0.000000 0.000000 1.000000
vn 0.000000 0.000000 1.000000
vn 0.000000 0.000000 1.000000
vn 0.000000 1.000000 0.000000
vn 0.000000 1.000000 0.000000
vn 0.000000 1.000000 0.000000
vn 0.000000 1.000000 0.000000
vn 0.000000 0.000000 -1.000000
vn 0.000000 0.000000 -1.000000
vn 0.000000 0.000000 -1.000000
vn 0.000000 0.000000 -1.000000
vn 0.000000 -1.000000 0.000000
vn 0.000000 -1.000000 0.000000
vn 0.000000 -1.000000 0.000000
vn 0.000000 -1.000000 0.000000
vn 1.000000 0.000000 0.000000
vn 1.000000 0.000000 0.000000
vn 1.000000 0.000000 0.000000
vn 1.000000 0.000000 0.000000
vn -1.000000 0.000000 0.000000
vn -1.000000 0.000000 0.000000
vn -1.000000 0.000000 0.000000
vn -1.000000 0.000000 0.000000
vn 0.000000 0.000000 1.000000
vn 0.000000 0.000000 1.000000
vn 0.000000 0.000000 1.000000
vn 0.000000 0.000000 1.000000
vn 0.000000 1.000000 0.000000
vn 0.000000 1.000000 0.000000
vn 0.000000 1.000000 0.000000
vn 0.000000 1.000000 0.000000
vn 0.000000 0.000000 -1.000000
vn 0.000000 0.000000 -1.000000
vn 0.000000 0.000000 -1.000000
vn 0.000000 0.000000 -1.000000
vn 0.000000 -1.000000 0.000000
vn 0.000000 -1.000000 0.000000
vn 0.000000 -1.000000 0.000000
vn 0.000000 -1.000000 0.000000
vn 1.000000 0.000000 0.000000
vn 1.000000 0.000000 0.000000
vn 1.000000 0.000000 0.000000
vn 1.000000 0.000000 0.000000
vn -1.000000 0.000000 0.000000
vn -1.000000 0.000000 0.000000
vn -1.000000 0.000000 0.000000
vn -1.000000 0.000000 0.000000
s off
g pCube24
usemtl initialShadingGroup
f 1/241/1 2/242/2 4/243/3 3/244/4
f 3/121/5 4/122/6 6/123/7 5/124/8
f 5/245/9 6/246/10 8/247/11 7/248/12
f 7/125/13 8/126/14 2/127/15 1/128/16
f 2/1/17 8/2/18 6/3/19 4/4/20
f 7/5/21 1/6/22 3/7/23 5/8/24
f 9/249/25 10/250/26 12/251/27 11/252/28
f 11/129/29 12/130/30 14/131/31 13/132/32
f 13/253/33 14/254/34 16/255/35 15/256/36
f 15/133/37 16/134/38 10/135/39 9/136/40
f 10/9/41 16/10/42 14/11/43 12/12/44
f 15/13/45 9/14/46 11/15/47 13/16/48
f 17/257/49 18/258/50 20/259/51 19/260/52
f 19/137/53 20/138/54 22/139/55 21/140/56
f 21/261/57 22/262/58 24/263/59 23/264/60
f 23/141/61 24/142/62 18/143/63 17/144/64
f 18/17/65 24/18/66 22/19/67 20/20/68
f 23/21/69 17/22/70 19/23/71 21/24/72
f 25/265/73 26/266/74 28/267/75 27/268/76
f 27/145/77 28/146/78 30/147/79 29/148/80
f 29/269/81 30/270/82 32/271/83 31/272/84
f 31/149/85 32/150/86 26/151/87 25/152/88
f 26/25/89 32/26/90 30/27/91 28/28/92
f 31/29/93 25/30/94 27/31/95 29/32/96
f 33/273/97 34/274/98 36/275/99 35/276/100
f 35/153/101 36/154/102 38/155/103 37/156/104
f 37/277/105 38/278/106 40/279/107 39/280/108
f 39/157/109 40/158/110 34/159/111 33/160/112
f 34/33/113 40/34/114 38/35/115 36/36/116
f 39/37/117 33/38/118 35/39/119 37/40/120
f 41/281/121 42/282/122 44/283/123 43/284/124
f 43/161/125 44/162/126 46/163/127 45/164/128
f 45/285/129 46/286/130 48/287/131 47/288/132
f 47/165/133 48/166/134 42/167/135 41/168/136
f 42/41/137 48/42/138 46/43/139 44/44/140
f 47/45/141 41/46/142 43/47/143 45/48/144
f 49/289/145 50/290/146 52/291/147 51/292/148
f 51/169/149 52/170/150 54/171/151 53/172/152
f 53/293/153 54/294/154 56/295/155 55/296/156
f 55/173/157 56/174/158 50/175/159 49/176/160
f 50/49/161 56/50/162 54/51/163 52/52/164
f 55/53/165 49/54/166 51/55/167 53/56/168
f 57/297/169 58/298/170 60/299/171 59/300/172
f 59/177/173 60/178/174 62/179/175 61/180/176
f 61/301/177 62/302/178 64/303/179 63/304/180
f 63/181/181 64/182/182 58/183/183 57/184/184
f 58/57/185 64/58/186 62/59/187 60/60/188
f 63/61/189 57/62/190 59/63/191 61/64/192
f 65/305/193 66/306/194 68/307/195 67/308/196
f 67/185/197 68/186/198 70/187/199 69/188/200
f 69/309/201 70/310/202 72/311/203 71/312/204
f 71/189/205 72/190/206 66/191/207 65/192/208
f 66/65/209 72/66/210 70/67/211 68/68/212
f 71/69/213 65/70/214 67/71/215 69/72/216
f 73/313/217 74/314/218 76/315/219 75/316/220
f 75/193/221 76/194/222 78/195/223 77/196/224
f 77/317/225 78/318/226 80/319/227 79/320/228
f 79/197/229 80/198/230 74/199/231 73/200/232
f 74/73/233 80/74/234 78/75/235 76/76/236
f 79/77/237 73/78/238 75/79/239 77/80/240
f 81/321/241 82/322/242 84/323/243 83/324/244
f 83/201/245 84/202/246 86/203/247 85/204/248
f 85/325/249 86/326/250 88/327/251 87/328/252
f 87/205/253 88/206/254 82/207/255 81/208/256
f 82/81/257 88/82/258 86/83/259 84/84/260
f 87/85/261 81/86/262 83/87/263 85/88/264
f 89/329/265 90/330/266 92/331/267 91/332/268
f 91/209/269 92/210/270 94/211/271 93/212/272
f 93/333/273 94/334/274 96/335/275 95/336/276
f 95/213/277 96/214/278 90/215/279 89/216/280
f 90/89/281 96/90/282 94/91/283 92/92/284
f 95/93/285 89/94/286 91/95/287 93/96/288
f 97/337/289 98/338/290 100/339/291 99/340/292
f 99/217/293 100/218/294 102/219/295 101/220/296
f 101/341/297 102/342/298 104/343/299 103/344/300
f 103/221/301 104/222/302 98/223/303 97/224/304
f 98/97/305 104/98/306 102/99/307 100/100/308
f 103/101/309 97/102/310 99/103/311 101/104/312
f 105/345/313 106/346/314 108/347/315 107/348/316
f 107/225/317 108/226/318 110/227/319 109/228/320
f 109/349/321 110/350/322 112/351/323 111/352/324
f 111/229/325 112/230/326 106/231/327 105/232/328
f 106/105/329 112/106/330 110/107/331 108/108/332
f 111/109/333 105/110/334 107/111/335 109/112/336
f 113/353/337 114/354/338 116/355/339 115/356/340
f 115/233/341 116/234/342 118/235/343 117/236/344
f 117/357/345 118/358/346 120/359/347 119/360/348
f 119/237/349 120/238/350 114/239/351 113/240/352
f 114/113/353 120/114/354 118/115/355 116/116/356
f 119/117/357 113/118/358 115/119/359 117/120/360
