# This file uses centimeters as units for non-parametric coordinates.

mtllib fish1.mtl
g default
v -0.110928 4.957902 1.169050
v 0.110928 4.957902 1.169050
v -0.110928 6.460012 1.169050
v 0.110928 6.460012 1.169050
v -0.110928 6.460012 0.934110
v 0.110928 6.460012 0.934110
v -0.110928 4.957902 0.934110
v 0.110928 4.957902 0.934110
v -0.110928 4.957902 0.967277
v 0.110928 4.957902 0.967277
v -0.110928 6.683598 0.967277
v 0.110928 6.683598 0.967277
v -0.110928 6.683598 0.732337
v 0.110928 6.683598 0.732337
v -0.110928 4.957902 0.732337
v 0.110928 4.957902 0.732337
v -0.110928 6.036733 -0.347058
v 0.110928 6.036733 -0.347058
v -0.110928 7.311952 -0.347058
v 0.110928 7.311952 -0.347058
v -0.110928 7.311952 -0.581999
v 0.110928 7.311952 -0.581999
v -0.110928 6.036733 -0.581999
v 0.110928 6.036733 -0.581999
v -0.110928 6.872016 -1.001370
v 0.110928 6.872016 -1.001370
v -0.110928 7.959674 -1.001370
v 0.110928 7.959674 -1.001370
v -0.110928 7.959674 -1.236310
v 0.110928 7.959674 -1.236310
v -0.110928 6.872016 -1.236310
v 0.110928 6.872016 -1.236310
v -0.110928 6.872016 -0.772331
v 0.110928 6.872016 -0.772331
v -0.110928 7.959674 -0.772331
v 0.110928 7.959674 -0.772331
v -0.110928 7.959674 -1.007271
v 0.110928 7.959674 -1.007271
v -0.110928 6.872016 -1.007271
v 0.110928 6.872016 -1.007271
v -0.110928 6.226472 -0.543338
v 0.110928 6.226472 -0.543338
v -0.110928 7.959674 -0.543338
v 0.110928 7.959674 -0.543338
v -0.110928 7.959674 -0.778278
v 0.110928 7.959674 -0.778278
v -0.110928 6.226472 -0.778278
v 0.110928 6.226472 -0.778278
v -0.110928 5.814281 -0.124608
v 0.110928 5.814281 -0.124608
v -0.110928 7.311952 -0.124608
v 0.110928 7.311952 -0.124608
v -0.110928 7.311952 -0.359548
v 0.110928 7.311952 -0.359548
v -0.110928 5.814281 -0.359548
v 0.110928 5.814281 -0.359548
v -0.110928 4.957902 0.743691
v 0.110928 4.957902 0.743691
v -0.110928 6.874464 0.743691
v 0.110928 6.874464 0.743691
v -0.110928 6.874464 0.508751
v 0.110928 6.874464 0.508751
v -0.110928 4.957902 0.508751
v 0.110928 4.957902 0.508751
v -0.110928 5.375924 0.516572
v 0.110928 5.375924 0.516572
v -0.110928 7.102587 0.516572
v 0.110928 7.102587 0.516572
v -0.110928 7.102587 0.078809
v 0.110928 7.102587 0.078809
v -0.110928 5.375924 0.078809
v 0.110928 5.375924 0.078809
v -0.110928 5.591831 0.084757
v 0.110928 5.591831 0.084757
v -0.110928 7.318494 0.084757
v 0.110928 7.318494 0.084757
v -0.110928 7.318494 -0.124013
v 0.110928 7.318494 -0.124013
v -0.110928 5.591831 -0.124013
v 0.110928 5.591831 -0.124013
v -0.110928 5.170582 1.398090
v 0.110928 5.170582 1.398090
v -0.110928 6.061920 1.398090
v 0.110928 6.061920 1.398090
v -0.110928 6.061920 1.163149
v 0.110928 6.061920 1.163149
v -0.110928 5.170582 1.163149
v 0.110928 5.170582 1.163149
v -0.110928 6.872016 -1.224956
v 0.110928 6.872016 -1.224956
v -0.110928 7.545222 -1.224956
v 0.110928 7.545222 -1.224956
v -0.110928 7.545222 -1.459896
v 0.110928 7.545222 -1.459896
v -0.110928 6.872016 -1.459896
v 0.110928 6.872016 -1.459896
vt 0.583721 0.362382
vt 0.632243 0.362382
vt 0.632243 0.672607
vt 0.583721 0.672607
vt 0.529375 0.362382
vt 0.577896 0.362382
vt 0.577896 0.672607
vt 0.529375 0.672607
vt 0.795701 0.362382
vt 0.844222 0.362382
vt 0.844222 0.718783
vt 0.795701 0.718783
vt 0.741355 0.362382
vt 0.789876 0.362382
vt 0.789876 0.718783
vt 0.741355 0.718783
vt 0.159762 0.401601
vt 0.208283 0.401601
vt 0.208283 0.664967
vt 0.159762 0.664967
vt 0.105416 0.401601
vt 0.153937 0.401601
vt 0.153937 0.664967
vt 0.105416 0.664967
vt 0.001891 0.630020
vt 0.050413 0.630020
vt 0.050413 0.854650
vt 0.001891 0.854650
vt 0.057586 0.668757
vt 0.106108 0.668757
vt 0.106108 0.893386
vt 0.057586 0.893386
vt 0.216715 0.668757
vt 0.265237 0.668757
vt 0.265237 0.893387
vt 0.216715 0.893387
vt 0.272226 0.676830
vt 0.320747 0.676830
vt 0.320747 0.901460
vt 0.272226 0.901460
vt 0.320334 0.001992
vt 0.368856 0.001992
vt 0.368856 0.359943
vt 0.320334 0.359943
vt 0.375844 0.001992
vt 0.424366 0.001992
vt 0.424366 0.359943
vt 0.375844 0.359943
vt 0.371742 0.363733
vt 0.420263 0.363733
vt 0.420263 0.673041
vt 0.371742 0.673041
vt 0.317396 0.363733
vt 0.365917 0.363733
vt 0.365917 0.673041
vt 0.317396 0.673041
vt 0.105695 0.001992
vt 0.154216 0.001992
vt 0.154216 0.397812
vt 0.105695 0.397812
vt 0.161205 0.001992
vt 0.209727 0.001992
vt 0.209727 0.397812
vt 0.161205 0.397812
vt 0.534973 0.001992
vt 0.625383 0.001992
vt 0.625383 0.358593
vt 0.534973 0.358593
vt 0.633041 0.001992
vt 0.723451 0.001992
vt 0.723451 0.358593
vt 0.633041 0.358593
vt 0.834728 0.001992
vt 0.877845 0.001992
vt 0.877845 0.358593
vt 0.834728 0.358593
vt 0.884687 0.001992
vt 0.927804 0.001992
vt 0.927804 0.358593
vt 0.884687 0.358593
vt 0.431355 0.676830
vt 0.479876 0.676830
vt 0.479876 0.860915
vt 0.431355 0.860915
vt 0.486865 0.676397
vt 0.535386 0.676397
vt 0.535386 0.860481
vt 0.486865 0.860481
vt 0.645994 0.676397
vt 0.694515 0.676397
vt 0.694515 0.815431
vt 0.645994 0.815431
vt 0.701504 0.722573
vt 0.750025 0.722573
vt 0.750025 0.861607
vt 0.701504 0.861607
vt 0.860633 0.722573
vt 0.906452 0.722573
vt 0.906452 0.771094
vt 0.860633 0.771094
vt 0.901691 0.774884
vt 0.947510 0.774884
vt 0.947510 0.823405
vt 0.901691 0.823405
vt 0.850047 0.816772
vt 0.895866 0.816772
vt 0.895866 0.865293
vt 0.850047 0.865293
vt 0.798404 0.816772
vt 0.844222 0.816772
vt 0.844222 0.865293
vt 0.798404 0.865293
vt 0.746760 0.865397
vt 0.792579 0.865397
vt 0.792579 0.913918
vt 0.746760 0.913918
vt 0.695116 0.865397
vt 0.740935 0.865397
vt 0.740935 0.913918
vt 0.695116 0.913918
vt 0.643472 0.819221
vt 0.689291 0.819221
vt 0.689291 0.867742
vt 0.643472 0.867742
vt 0.591829 0.819221
vt 0.637648 0.819221
vt 0.637648 0.867742
vt 0.591829 0.867742
vt 0.540185 0.864271
vt 0.586004 0.864271
vt 0.586004 0.912792
vt 0.540185 0.912792
vt 0.488541 0.864271
vt 0.534360 0.864271
vt 0.534360 0.912792
vt 0.488541 0.912792
vt 0.436898 0.864704
vt 0.482717 0.864704
vt 0.482717 0.913226
vt 0.436898 0.913226
vt 0.385254 0.864704
vt 0.431073 0.864704
vt 0.431073 0.913226
vt 0.385254 0.913226
vt 0.333610 0.864704
vt 0.379429 0.864704
vt 0.379429 0.913226
vt 0.333610 0.913226
vt 0.281967 0.905250
vt 0.327785 0.905250
vt 0.327785 0.953771
vt 0.281967 0.953771
vt 0.230323 0.905250
vt 0.276142 0.905250
vt 0.276142 0.953771
vt 0.230323 0.953771
vt 0.178679 0.897176
vt 0.224498 0.897176
vt 0.224498 0.945697
vt 0.178679 0.945697
vt 0.757014 0.722573
vt 0.802833 0.722573
vt 0.802833 0.812982
vt 0.757014 0.812982
vt 0.808823 0.722573
vt 0.854642 0.722573
vt 0.854642 0.812982
vt 0.808823 0.812982
vt 0.053886 0.995306
vt 0.053886 0.949487
vt 0.097002 0.949487
vt 0.097002 0.995306
vt 0.103845 0.995306
vt 0.103845 0.949487
vt 0.146961 0.949487
vt 0.146961 0.995306
vt 0.127035 0.897176
vt 0.172854 0.897176
vt 0.172854 0.945697
vt 0.127035 0.945697
vt 0.075392 0.897176
vt 0.121211 0.897176
vt 0.121211 0.945697
vt 0.075392 0.945697
vt 0.023748 0.897176
vt 0.069567 0.897176
vt 0.069567 0.945697
vt 0.023748 0.945697
vt 0.001891 0.949487
vt 0.047710 0.949487
vt 0.047710 0.998008
vt 0.001891 0.998008
vt 0.689711 0.362382
vt 0.735530 0.362382
vt 0.735530 0.672607
vt 0.689711 0.672607
vt 0.638068 0.362382
vt 0.683886 0.362382
vt 0.683886 0.672607
vt 0.638068 0.672607
vt 0.901691 0.362382
vt 0.947510 0.362382
vt 0.947510 0.718783
vt 0.901691 0.718783
vt 0.850047 0.362382
vt 0.895866 0.362382
vt 0.895866 0.718783
vt 0.850047 0.718783
vt 0.265752 0.363733
vt 0.311571 0.363733
vt 0.311571 0.627099
vt 0.265752 0.627099
vt 0.214108 0.401601
vt 0.259927 0.401601
vt 0.259927 0.664967
vt 0.214108 0.664967
vt 0.053772 0.401601
vt 0.099591 0.401601
vt 0.099591 0.626231
vt 0.053772 0.626231
vt 0.002128 0.401601
vt 0.047947 0.401601
vt 0.047947 0.626231
vt 0.002128 0.626231
vt 0.113097 0.668757
vt 0.158915 0.668757
vt 0.158915 0.893387
vt 0.113097 0.893387
vt 0.164906 0.668757
vt 0.210725 0.668757
vt 0.210725 0.893387
vt 0.164906 0.893387
vt 0.216715 0.001992
vt 0.262534 0.001992
vt 0.262534 0.359943
vt 0.216715 0.359943
vt 0.268525 0.001992
vt 0.314344 0.001992
vt 0.314344 0.359943
vt 0.268525 0.359943
vt 0.477732 0.362382
vt 0.523550 0.362382
vt 0.523550 0.671690
vt 0.477732 0.671690
vt 0.426088 0.363733
vt 0.471907 0.363733
vt 0.471907 0.673041
vt 0.426088 0.673041
vt 0.001891 0.001992
vt 0.047710 0.001992
vt 0.047710 0.397812
vt 0.001891 0.397812
vt 0.053886 0.001992
vt 0.099705 0.001992
vt 0.099705 0.397812
vt 0.053886 0.397812
vt 0.431355 0.001992
vt 0.477173 0.001992
vt 0.477173 0.358593
vt 0.431355 0.358593
vt 0.483164 0.001992
vt 0.528983 0.001992
vt 0.528983 0.358593
vt 0.483164 0.358593
vt 0.731109 0.001992
vt 0.776928 0.001992
vt 0.776928 0.358593
vt 0.731109 0.358593
vt 0.782919 0.001992
vt 0.828738 0.001992
vt 0.828738 0.358593
vt 0.782919 0.358593
vt 0.327736 0.676830
vt 0.373555 0.676830
vt 0.373555 0.860915
vt 0.327736 0.860915
vt 0.379545 0.676830
vt 0.425364 0.676830
vt 0.425364 0.860915
vt 0.379545 0.860915
vt 0.542375 0.676397
vt 0.588194 0.676397
vt 0.588194 0.815431
vt 0.542375 0.815431
vt 0.594184 0.676397
vt 0.640003 0.676397
vt 0.640003 0.815431
vt 0.594184 0.815431
vn 0.000000 0.000000 1.000000
vn 0.000000 0.000000 1.000000
vn 0.000000 0.000000 1.000000
vn 0.000000 0.000000 1.000000
vn 0.000000 1.000000 0.000000
vn 0.000000 1.000000 0.000000
vn 0.000000 1.000000 0.000000
vn 0.000000 1.000000 0.000000
vn 0.000000 0.000000 -1.000000
vn 0.000000 0.000000 -1.000000
vn 0.000000 0.000000 -1.000000
vn 0.000000 0.000000 -1.000000
vn 0.000000 -1.000000 0.000000
vn 0.000000 -1.000000 0.000000
vn 0.000000 -1.000000 0.000000
vn 0.000000 -1.000000 0.000000
vn 1.000000 0.000000 0.000000
vn 1.000000 0.000000 0.000000
vn 1.000000 0.000000 0.000000
vn 1.000000 0.000000 0.000000
vn -1.000000 0.000000 0.000000
vn -1.000000 0.000000 0.000000
vn -1.000000 0.000000 0.000000
vn -1.000000 0.000000 0.000000
vn 0.000000 0.000000 1.000000
vn 0.000000 0.000000 1.000000
vn 0.000000 0.000000 1.000000
vn 0.000000 0.000000 1.000000
vn 0.000000 1.000000 0.000000
vn 0.000000 1.000000 0.000000
vn 0.000000 1.000000 0.000000
vn 0.000000 1.000000 0.000000
vn 0.000000 0.000000 -1.000000
vn 0.000000 0.000000 -1.000000
vn 0.000000 0.000000 -1.000000
vn 0.000000 0.000000 -1.000000
vn 0.000000 -1.000000 0.000000
vn 0.000000 -1.000000 0.000000
vn 0.000000 -1.000000 0.000000
vn 0.000000 -1.000000 0.000000
vn 1.000000 0.000000 0.000000
vn 1.000000 0.000000 0.000000
vn 1.000000 0.000000 0.000000
vn 1.000000 0.000000 0.000000
vn -1.000000 0.000000 0.000000
vn -1.000000 0.000000 0.000000
vn -1.000000 0.000000 0.000000
vn -1.000000 0.000000 0.000000
vn 0.000000 0.000000 1.000000
vn 0.000000 0.000000 1.000000
vn 0.000000 0.000000 1.000000
vn 0.000000 0.000000 1.000000
vn 0.000000 1.000000 0.000000
vn 0.000000 1.000000 0.000000
vn 0.000000 1.000000 0.000000
vn 0.000000 1.000000 0.000000
vn 0.000000 0.000000 -1.000000
vn 0.000000 0.000000 -1.000000
vn 0.000000 0.000000 -1.000000
vn 0.000000 0.000000 -1.000000
vn 0.000000 -1.000000 0.000000
vn 0.000000 -1.000000 0.000000
vn 0.000000 -1.000000 0.000000
vn 0.000000 -1.000000 0.000000
vn 1.000000 0.000000 0.000000
vn 1.000000 0.000000 0.000000
vn 1.000000 0.000000 0.000000
vn 1.000000 0.000000 0.000000
vn -1.000000 0.000000 0.000000
vn -1.000000 0.000000 0.000000
vn -1.000000 0.000000 0.000000
vn -1.000000 0.000000 0.000000
vn 0.000000 0.000000 1.000000
vn 0.000000 0.000000 1.000000
vn 0.000000 0.000000 1.000000
vn 0.000000 0.000000 1.000000
vn 0.000000 1.000000 0.000000
vn 0.000000 1.000000 0.000000
vn 0.000000 1.000000 0.000000
vn 0.000000 1.000000 0.000000
vn 0.000000 0.000000 -1.000000
vn 0.000000 0.000000 -1.000000
vn 0.000000 0.000000 -1.000000
vn 0.000000 0.000000 -1.000000
vn 0.000000 -1.000000 0.000000
vn 0.000000 -1.000000 0.000000
vn 0.000000 -1.000000 0.000000
vn 0.000000 -1.000000 0.000000
vn 1.000000 0.000000 0.000000
vn 1.000000 0.000000 0.000000
vn 1.000000 0.000000 0.000000
vn 1.000000 0.000000 0.000000
vn -1.000000 0.000000 0.000000
vn -1.000000 0.000000 0.000000
vn -1.000000 0.000000 0.000000
vn -1.000000 0.000000 0.000000
vn 0.000000 0.000000 1.000000
vn 0.000000 0.000000 1.000000
vn 0.000000 0.000000 1.000000
vn 0.000000 0.000000 1.000000
vn 0.000000 1.000000 0.000000
vn 0.000000 1.000000 0.000000
vn 0.000000 1.000000 0.000000
vn 0.000000 1.000000 0.000000
vn 0.000000 0.000000 -1.000000
vn 0.000000 0.000000 -1.000000
vn 0.000000 0.000000 -1.000000
vn 0.000000 0.000000 -1.000000
vn 0.000000 -1.000000 0.000000
vn 0.000000 -1.000000 0.000000
vn 0.000000 -1.000000 0.000000
vn 0.000000 -1.000000 0.000000
vn 1.000000 0.000000 0.000000
vn 1.000000 0.000000 0.000000
vn 1.000000 0.000000 0.000000
vn 1.000000 0.000000 0.000000
vn -1.000000 0.000000 0.000000
vn -1.000000 0.000000 0.000000
vn -1.000000 0.000000 0.000000
vn -1.000000 0.000000 0.000000
vn 0.000000 0.000000 1.000000
vn 0.000000 0.000000 1.000000
vn 0.000000 0.000000 1.000000
vn 0.000000 0.000000 1.000000
vn 0.000000 1.000000 0.000000
vn 0.000000 1.000000 0.000000
vn 0.000000 1.000000 0.000000
vn 0.000000 1.000000 0.000000
vn 0.000000 0.000000 -1.000000
vn 0.000000 0.000000 -1.000000
vn 0.000000 0.000000 -1.000000
vn 0.000000 0.000000 -1.000000
vn 0.000000 -1.000000 0.000000
vn 0.000000 -1.000000 0.000000
vn 0.000000 -1.000000 0.000000
vn 0.000000 -1.000000 0.000000
vn 1.000000 0.000000 0.000000
vn 1.000000 0.000000 0.000000
vn 1.000000 0.000000 0.000000
vn 1.000000 0.000000 0.000000
vn -1.000000 0.000000 0.000000
vn -1.000000 0.000000 0.000000
vn -1.000000 0.000000 0.000000
vn -1.000000 0.000000 0.000000
vn 0.000000 0.000000 1.000000
vn 0.000000 0.000000 1.000000
vn 0.000000 0.000000 1.000000
vn 0.000000 0.000000 1.000000
vn 0.000000 1.000000 0.000000
vn 0.000000 1.000000 0.000000
vn 0.000000 1.000000 0.000000
vn 0.000000 1.000000 0.000000
vn 0.000000 0.000000 -1.000000
vn 0.000000 0.000000 -1.000000
vn 0.000000 0.000000 -1.000000
vn 0.000000 0.000000 -1.000000
vn 0.000000 -1.000000 0.000000
vn 0.000000 -1.000000 0.000000
vn 0.000000 -1.000000 0.000000
vn 0.000000 -1.000000 0.000000
vn 1.000000 0.000000 0.000000
vn 1.000000 0.000000 0.000000
vn 1.000000 0.000000 0.000000
vn 1.000000 0.000000 0.000000
vn -1.000000 0.000000 0.000000
vn -1.000000 0.000000 0.000000
vn -1.000000 0.000000 0.000000
vn -1.000000 0.000000 0.000000
vn 0.000000 0.000000 1.000000
vn 0.000000 0.000000 1.000000
vn 0.000000 0.000000 1.000000
vn 0.000000 0.000000 1.000000
vn 0.000000 1.000000 0.000000
vn 0.000000 1.000000 0.000000
vn 0.000000 1.000000 0.000000
vn 0.000000 1.000000 0.000000
vn 0.000000 0.000000 -1.000000
vn 0.000000 0.000000 -1.000000
vn 0.000000 0.000000 -1.000000
vn 0.000000 0.000000 -1.000000
vn 0.000000 -1.000000 0.000000
vn 0.000000 -1.000000 0.000000
vn 0.000000 -1.000000 0.000000
vn 0.000000 -1.000000 0.000000
vn 1.000000 0.000000 0.000000
vn 1.000000 0.000000 0.000000
vn 1.000000 0.000000 0.000000
vn 1.000000 0.000000 0.000000
vn -1.000000 0.000000 0.000000
vn -1.000000 0.000000 0.000000
vn -1.000000 0.000000 0.000000
vn -1.000000 0.000000 0.000000
vn 0.000000 0.000000 1.000000
vn 0.000000 0.000000 1.000000
vn 0.000000 0.000000 1.000000
vn 0.000000 0.000000 1.000000
vn 0.000000 1.000000 0.000000
vn 0.000000 1.000000 0.000000
vn 0.000000 1.000000 0.000000
vn 0.000000 1.000000 0.000000
vn 0.000000 0.000000 -1.000000
vn 0.000000 0.000000 -1.000000
vn 0.000000 0.000000 -1.000000
vn 0.000000 0.000000 -1.000000
vn 0.000000 -1.000000 0.000000
vn 0.000000 -1.000000 0.000000
vn 0.000000 -1.000000 0.000000
vn 0.000000 -1.000000 0.000000
vn 1.000000 0.000000 0.000000
vn 1.000000 0.000000 0.000000
vn 1.000000 0.000000 0.000000
vn 1.000000 0.000000 0.000000
vn -1.000000 0.000000 0.000000
vn -1.000000 0.000000 0.000000
vn -1.000000 0.000000 0.000000
vn -1.000000 0.000000 0.000000
vn 0.000000 0.000000 1.000000
vn 0.000000 0.000000 1.000000
vn 0.000000 0.000000 1.000000
vn 0.000000 0.000000 1.000000
vn 0.000000 1.000000 0.000000
vn 0.000000 1.000000 0.000000
vn 0.000000 1.000000 0.000000
vn 0.000000 1.000000 0.000000
vn 0.000000 0.000000 -1.000000
vn 0.000000 0.000000 -1.000000
vn 0.000000 0.000000 -1.000000
vn 0.000000 0.000000 -1.000000
vn 0.000000 -1.000000 0.000000
vn 0.000000 -1.000000 0.000000
vn 0.000000 -1.000000 0.000000
vn 0.000000 -1.000000 0.000000
vn 1.000000 0.000000 0.000000
vn 1.000000 0.000000 0.000000
vn 1.000000 0.000000 0.000000
vn 1.000000 0.000000 0.000000
vn -1.000000 0.000000 0.000000
vn -1.000000 0.000000 0.000000
vn -1.000000 0.000000 0.000000
vn -1.000000 0.000000 0.000000
vn 0.000000 0.000000 1.000000
vn 0.000000 0.000000 1.000000
vn 0.000000 0.000000 1.000000
vn 0.000000 0.000000 1.000000
vn 0.000000 1.000000 0.000000
vn 0.000000 1.000000 0.000000
vn 0.000000 1.000000 0.000000
vn 0.000000 1.000000 0.000000
vn 0.000000 0.000000 -1.000000
vn 0.000000 0.000000 -1.000000
vn 0.000000 0.000000 -1.000000
vn 0.000000 0.000000 -1.000000
vn 0.000000 -1.000000 0.000000
vn 0.000000 -1.000000 0.000000
vn 0.000000 -1.000000 0.000000
vn 0.000000 -1.000000 0.000000
vn 1.000000 0.000000 0.000000
vn 1.000000 0.000000 0.000000
vn 1.000000 0.000000 0.000000
vn 1.000000 0.000000 0.000000
vn -1.000000 0.000000 0.000000
vn -1.000000 0.000000 0.000000
vn -1.000000 0.000000 0.000000
vn -1.000000 0.000000 0.000000
vn 0.000000 0.000000 1.000000
vn 0.000000 0.000000 1.000000
vn 0.000000 0.000000 1.000000
vn 0.000000 0.000000 1.000000
vn 0.000000 1.000000 0.000000
vn 0.000000 1.000000 0.000000
vn 0.000000 1.000000 0.000000
vn 0.000000 1.000000 0.000000
vn 0.000000 0.000000 -1.000000
vn 0.000000 0.000000 -1.000000
vn 0.000000 0.000000 -1.000000
vn 0.000000 0.000000 -1.000000
vn 0.000000 -1.000000 0.000000
vn 0.000000 -1.000000 0.000000
vn 0.000000 -1.000000 0.000000
vn 0.000000 -1.000000 0.000000
vn 1.000000 0.000000 0.000000
vn 1.000000 0.000000 0.000000
vn 1.000000 0.000000 0.000000
vn 1.000000 0.000000 0.000000
vn -1.000000 0.000000 0.000000
vn -1.000000 0.000000 0.000000
vn -1.000000 0.000000 0.000000
vn -1.000000 0.000000 0.000000
s off
g pCube37
usemtl initialShadingGroup
f 1/193/1 2/194/2 4/195/3 3/196/4
f 3/97/5 4/98/6 6/99/7 5/100/8
f 5/197/9 6/198/10 8/199/11 7/200/12
f 7/101/13 8/102/14 2/103/15 1/104/16
f 2/1/17 8/2/18 6/3/19 4/4/20
f 7/5/21 1/6/22 3/7/23 5/8/24
f 9/201/25 10/202/26 12/203/27 11/204/28
f 11/105/29 12/106/30 14/107/31 13/108/32
f 13/205/33 14/206/34 16/207/35 15/208/36
f 15/109/37 16/110/38 10/111/39 9/112/40
f 10/9/41 16/10/42 14/11/43 12/12/44
f 15/13/45 9/14/46 11/15/47 13/16/48
f 17/209/49 18/210/50 20/211/51 19/212/52
f 19/113/53 20/114/54 22/115/55 21/116/56
f 21/213/57 22/214/58 24/215/59 23/216/60
f 23/117/61 24/118/62 18/119/63 17/120/64
f 18/17/65 24/18/66 22/19/67 20/20/68
f 23/21/69 17/22/70 19/23/71 21/24/72
f 25/217/73 26/218/74 28/219/75 27/220/76
f 27/121/77 28/122/78 30/123/79 29/124/80
f 29/221/81 30/222/82 32/223/83 31/224/84
f 31/125/85 32/126/86 26/127/87 25/128/88
f 26/25/89 32/26/90 30/27/91 28/28/92
f 31/29/93 25/30/94 27/31/95 29/32/96
f 33/225/97 34/226/98 36/227/99 35/228/100
f 35/129/101 36/130/102 38/131/103 37/132/104
f 37/229/105 38/230/106 40/231/107 39/232/108
f 39/133/109 40/134/110 34/135/111 33/136/112
f 34/33/113 40/34/114 38/35/115 36/36/116
f 39/37/117 33/38/118 35/39/119 37/40/120
f 41/233/121 42/234/122 44/235/123 43/236/124
f 43/137/125 44/138/126 46/139/127 45/140/128
f 45/237/129 46/238/130 48/239/131 47/240/132
f 47/141/133 48/142/134 42/143/135 41/144/136
f 42/41/137 48/42/138 46/43/139 44/44/140
f 47/45/141 41/46/142 43/47/143 45/48/144
f 49/241/145 50/242/146 52/243/147 51/244/148
f 51/145/149 52/146/150 54/147/151 53/148/152
f 53/245/153 54/246/154 56/247/155 55/248/156
f 55/149/157 56/150/158 50/151/159 49/152/160
f 50/49/161 56/50/162 54/51/163 52/52/164
f 55/53/165 49/54/166 51/55/167 53/56/168
f 57/249/169 58/250/170 60/251/171 59/252/172
f 59/153/173 60/154/174 62/155/175 61/156/176
f 61/253/177 62/254/178 64/255/179 63/256/180
f 63/157/181 64/158/182 58/159/183 57/160/184
f 58/57/185 64/58/186 62/59/187 60/60/188
f 63/61/189 57/62/190 59/63/191 61/64/192
f 65/257/193 66/258/194 68/259/195 67/260/196
f 67/161/197 68/162/198 70/163/199 69/164/200
f 69/261/201 70/262/202 72/263/203 71/264/204
f 71/165/205 72/166/206 66/167/207 65/168/208
f 66/65/209 72/66/210 70/67/211 68/68/212
f 71/69/213 65/70/214 67/71/215 69/72/216
f 73/265/217 74/266/218 76/267/219 75/268/220
f 75/169/221 76/170/222 78/171/223 77/172/224
f 77/269/225 78/270/226 80/271/227 79/272/228
f 79/173/229 80/174/230 74/175/231 73/176/232
f 74/73/233 80/74/234 78/75/235 76/76/236
f 79/77/237 73/78/238 75/79/239 77/80/240
f 81/273/241 82/274/242 84/275/243 83/276/244
f 83/177/245 84/178/246 86/179/247 85/180/248
f 85/277/249 86/278/250 88/279/251 87/280/252
f 87/181/253 88/182/254 82/183/255 81/184/256
f 82/81/257 88/82/258 86/83/259 84/84/260
f 87/85/261 81/86/262 83/87/263 85/88/264
f 89/281/265 90/282/266 92/283/267 91/284/268
f 91/185/269 92/186/270 94/187/271 93/188/272
f 93/285/273 94/286/274 96/287/275 95/288/276
f 95/189/277 96/190/278 90/191/279 89/192/280
f 90/89/281 96/90/282 94/91/283 92/92/284
f 95/93/285 89/94/286 91/95/287 93/96/288
