# This file uses centimeters as units for non-parametric coordinates.

mtllib oven_body3.mtl
g default
v -1.025296 2.549753 0.384836
v -1.025296 2.550317 0.393888
v -1.025296 2.551912 0.402710
v -1.025296 2.554499 0.411086
v -1.025296 2.558014 0.418812
v -1.025296 2.562372 0.425699
v -1.025296 2.567466 0.431579
v -1.025296 2.573172 0.436308
v -1.025296 2.579351 0.439771
v -1.025296 2.585851 0.441884
v -1.025296 2.592514 0.442593
v -1.009157 2.549753 0.384836
v -1.009157 2.592514 0.442593
v -1.009157 2.585851 0.441884
v -1.009157 2.579351 0.439771
v -1.009157 2.573172 0.436308
v -1.009157 2.567466 0.431579
v -1.009157 2.562372 0.425699
v -1.009157 2.558014 0.418812
v -1.009157 2.554499 0.411086
v -1.009157 2.551912 0.402710
v -1.009157 2.550317 0.393888
v -1.025296 2.719743 0.384473
v -1.025296 2.677251 0.442593
v -1.025296 2.683925 0.441877
v -1.025296 2.690433 0.439744
v -1.025296 2.696614 0.436249
v -1.025296 2.702314 0.431477
v -1.025296 2.707392 0.425548
v -1.025296 2.711723 0.418608
v -1.025296 2.715197 0.410831
v -1.025296 2.717730 0.402407
v -1.025296 2.719258 0.393548
v -1.009157 2.719743 0.384473
v -1.009157 2.719258 0.393548
v -1.009157 2.717730 0.402407
v -1.009157 2.715197 0.410831
v -1.009157 2.711723 0.418608
v -1.009157 2.707392 0.425548
v -1.009157 2.702314 0.431477
v -1.009157 2.696614 0.436249
v -1.009157 2.690433 0.439744
v -1.009157 2.683925 0.441877
v -1.009157 2.677251 0.442593
v -1.025296 2.716190 -0.384836
v -1.025296 2.715626 -0.393888
v -1.025296 2.714031 -0.402710
v -1.025296 2.711445 -0.411086
v -1.025296 2.707930 -0.418812
v -1.025296 2.703572 -0.425699
v -1.025296 2.698478 -0.431579
v -1.025296 2.692771 -0.436308
v -1.025296 2.686593 -0.439771
v -1.025296 2.680093 -0.441884
v -1.025296 2.673430 -0.442593
v -1.009157 2.716190 -0.384836
v -1.009157 2.673430 -0.442593
v -1.009157 2.680093 -0.441884
v -1.009157 2.686593 -0.439771
v -1.009157 2.692771 -0.436308
v -1.009157 2.698478 -0.431579
v -1.009157 2.703572 -0.425699
v -1.009157 2.707930 -0.418812
v -1.009157 2.711445 -0.411086
v -1.009157 2.714031 -0.402710
v -1.009157 2.715626 -0.393888
v -1.025296 2.546200 -0.384473
v -1.025296 2.588693 -0.442593
v -1.025296 2.582019 -0.441877
v -1.025296 2.575511 -0.439744
v -1.025296 2.569330 -0.436249
v -1.025296 2.563629 -0.431477
v -1.025296 2.558551 -0.425548
v -1.025296 2.554221 -0.418608
v -1.025296 2.550747 -0.410831
v -1.025296 2.548214 -0.402407
v -1.025296 2.546685 -0.393548
v -1.009157 2.546200 -0.384473
v -1.009157 2.546685 -0.393548
v -1.009157 2.548214 -0.402407
v -1.009157 2.550747 -0.410831
v -1.009157 2.554221 -0.418608
v -1.009157 2.558551 -0.425548
v -1.009157 2.563629 -0.431477
v -1.009157 2.569330 -0.436249
v -1.009157 2.575511 -0.439744
v -1.009157 2.582019 -0.441877
v -1.009157 2.588693 -0.442593
v 1.011937 2.258910 0.836862
v 1.011937 2.259511 0.842039
v 1.011937 2.261300 0.847089
v 1.011937 2.264232 0.851887
v 1.011937 2.268236 0.856315
v 1.011937 2.273212 0.860265
v 1.011937 2.279038 0.863638
v 1.011937 2.285571 0.866351
v 1.011937 2.292650 0.868338
v 1.011937 2.300101 0.869551
v 1.011937 2.307739 0.869958
v 1.024696 2.258910 0.836862
v 1.024696 2.307739 0.869958
v 1.024696 2.300101 0.869551
v 1.024696 2.292650 0.868338
v 1.024696 2.285571 0.866351
v 1.024696 2.279038 0.863638
v 1.024696 2.273212 0.860265
v 1.024696 2.268236 0.856315
v 1.024696 2.264232 0.851887
v 1.024696 2.261300 0.847089
v 1.024696 2.259511 0.842039
v 1.011937 2.454250 0.836862
v 1.011937 2.405420 0.869958
v 1.011937 2.413059 0.869551
v 1.011937 2.420509 0.868338
v 1.011937 2.427588 0.866351
v 1.011937 2.434121 0.863638
v 1.011937 2.439948 0.860265
v 1.011937 2.444924 0.856315
v 1.011937 2.448928 0.851887
v 1.011937 2.451860 0.847089
v 1.011937 2.453649 0.842039
v 1.024696 2.454250 0.836862
v 1.024696 2.453649 0.842039
v 1.024696 2.451860 0.847089
v 1.024696 2.448928 0.851887
v 1.024696 2.444924 0.856315
v 1.024696 2.439948 0.860265
v 1.024696 2.434121 0.863638
v 1.024696 2.427588 0.866351
v 1.024696 2.420509 0.868338
v 1.024696 2.413059 0.869551
v 1.024696 2.405420 0.869958
v 1.011937 2.454250 -0.836862
v 1.011937 2.453649 -0.842039
v 1.011937 2.451860 -0.847089
v 1.011937 2.448928 -0.851887
v 1.011937 2.444924 -0.856315
v 1.011937 2.439948 -0.860265
v 1.011937 2.434121 -0.863638
v 1.011937 2.427588 -0.866351
v 1.011937 2.420509 -0.868338
v 1.011937 2.413059 -0.869551
v 1.011937 2.405420 -0.869958
v 1.024696 2.454250 -0.836862
v 1.024696 2.405420 -0.869958
v 1.024696 2.413059 -0.869551
v 1.024696 2.420509 -0.868338
v 1.024696 2.427588 -0.866351
v 1.024696 2.434121 -0.863638
v 1.024696 2.439948 -0.860265
v 1.024696 2.444924 -0.856315
v 1.024696 2.448928 -0.851887
v 1.024696 2.451860 -0.847089
v 1.024696 2.453649 -0.842039
v 1.011937 2.258910 -0.836862
v 1.011937 2.307739 -0.869958
v 1.011937 2.300101 -0.869551
v 1.011937 2.292650 -0.868338
v 1.011937 2.285571 -0.866351
v 1.011937 2.279038 -0.863638
v 1.011937 2.273212 -0.860265
v 1.011937 2.268236 -0.856315
v 1.011937 2.264232 -0.851887
v 1.011937 2.261300 -0.847089
v 1.011937 2.259511 -0.842039
v 1.024696 2.258910 -0.836862
v 1.024696 2.259511 -0.842039
v 1.024696 2.261300 -0.847089
v 1.024696 2.264232 -0.851887
v 1.024696 2.268236 -0.856315
v 1.024696 2.273212 -0.860265
v 1.024696 2.279038 -0.863638
v 1.024696 2.285571 -0.866351
v 1.024696 2.292650 -0.868338
v 1.024696 2.300101 -0.869551
v 1.024696 2.307739 -0.869958
v -1.124899 0.308072 0.947455
v 0.867371 0.308072 0.947455
v -1.128605 2.202984 0.947455
v 0.867371 2.202984 0.947455
v -1.128605 2.202984 -0.947455
v 0.867371 2.202984 -0.947455
v -1.124899 0.308072 -0.947455
v 0.867371 0.308072 -0.947455
v -1.140686 2.219120 1.015142
v 1.015142 2.219120 1.015142
v 1.015142 2.219120 -1.015142
v -1.140686 2.219120 -1.015142
v -1.015142 2.347009 1.015142
v 1.015142 2.347009 1.015142
v 1.015142 2.347009 -1.015142
v -1.015142 2.347009 -1.015142
v -1.144002 2.219120 1.015142
v -1.144002 2.219120 -1.015142
v -1.144002 2.347009 1.015142
v -1.144002 2.347009 -1.015142
v -1.015142 2.768330 1.015142
v -1.015142 2.768330 -1.015142
v -1.144002 2.768330 -1.015142
v -1.144002 2.768330 1.015142
v 0.867371 0.396307 -0.859221
v 0.867371 0.396307 0.859221
v 0.867371 2.114750 -0.859221
v 0.867371 2.114750 0.859221
v -0.770510 0.396307 -0.859221
v -0.770510 0.396307 0.859221
v -0.770510 2.114750 -0.859221
v -0.770510 2.114750 0.859221
v -1.015142 2.505033 1.015142
v 1.015142 2.505033 1.015142
v 1.015142 2.505033 -1.015142
v -1.015142 2.505033 -1.015142
v -0.908788 2.505033 0.908788
v 0.908788 2.505033 0.908788
v 0.908788 2.505033 -0.908788
v -0.908788 2.505033 -0.908788
v -0.908788 2.420595 0.908788
v 0.908788 2.420595 0.908788
v 0.908788 2.420595 -0.908788
v -0.908788 2.420595 -0.908788
vt 0.172191 0.832797
vt 0.172614 0.741136
vt 0.172681 0.740057
vt 0.172871 0.739006
vt 0.173180 0.738008
vt 0.173598 0.737087
vt 0.174118 0.736267
vt 0.174725 0.735566
vt 0.175405 0.735003
vt 0.176141 0.734590
vt 0.176915 0.734338
vt 0.177709 0.734254
vt 0.187805 0.734254
vt 0.188600 0.734339
vt 0.189376 0.734593
vt 0.190112 0.735010
vt 0.190791 0.735578
vt 0.191397 0.736285
vt 0.191912 0.737112
vt 0.192326 0.738038
vt 0.192628 0.739042
vt 0.192810 0.740098
vt 0.192868 0.741179
vt 0.192445 0.832840
vt 0.192378 0.833919
vt 0.192188 0.834970
vt 0.191879 0.835968
vt 0.191461 0.836888
vt 0.190941 0.837709
vt 0.190334 0.838409
vt 0.189654 0.838973
vt 0.188918 0.839386
vt 0.188144 0.839637
vt 0.187350 0.839722
vt 0.177254 0.839722
vt 0.176459 0.839636
vt 0.175683 0.839382
vt 0.174947 0.838966
vt 0.174268 0.838397
vt 0.173662 0.837691
vt 0.173146 0.836864
vt 0.172733 0.835937
vt 0.172431 0.834934
vt 0.172249 0.833878
vt 0.160537 0.734254
vt 0.161331 0.734338
vt 0.162106 0.734590
vt 0.162842 0.735003
vt 0.163522 0.735566
vt 0.164129 0.736267
vt 0.164648 0.737087
vt 0.165067 0.738008
vt 0.165375 0.739006
vt 0.165565 0.740057
vt 0.165632 0.741136
vt 0.166056 0.832797
vt 0.165998 0.833878
vt 0.165816 0.834934
vt 0.165514 0.835937
vt 0.165100 0.836864
vt 0.164584 0.837691
vt 0.163979 0.838397
vt 0.163300 0.838966
vt 0.162563 0.839382
vt 0.161788 0.839636
vt 0.160993 0.839722
vt 0.150896 0.839722
vt 0.150103 0.839637
vt 0.149328 0.839386
vt 0.148592 0.838973
vt 0.147912 0.838409
vt 0.147305 0.837709
vt 0.146786 0.836888
vt 0.146367 0.835968
vt 0.146059 0.834970
vt 0.145869 0.833919
vt 0.145802 0.832840
vt 0.145378 0.741179
vt 0.145436 0.740098
vt 0.145618 0.739042
vt 0.145920 0.738038
vt 0.146334 0.737112
vt 0.146850 0.736285
vt 0.147455 0.735578
vt 0.148134 0.735010
vt 0.148871 0.734593
vt 0.149646 0.734339
vt 0.150441 0.734254
vt 0.528404 0.692940
vt 0.528404 0.493520
vt 0.528476 0.492903
vt 0.528689 0.492301
vt 0.529038 0.491729
vt 0.529515 0.491202
vt 0.530108 0.490731
vt 0.530802 0.490329
vt 0.531581 0.490006
vt 0.532424 0.489769
vt 0.533312 0.489625
vt 0.534222 0.489576
vt 0.545860 0.489576
vt 0.546771 0.489625
vt 0.547658 0.489769
vt 0.548502 0.490006
vt 0.549280 0.490329
vt 0.549974 0.490731
vt 0.550567 0.491202
vt 0.551044 0.491729
vt 0.551394 0.492301
vt 0.551607 0.492903
vt 0.551678 0.493520
vt 0.551678 0.692940
vt 0.551607 0.693557
vt 0.551394 0.694158
vt 0.551044 0.694730
vt 0.550567 0.695258
vt 0.549974 0.695728
vt 0.549280 0.696130
vt 0.548502 0.696453
vt 0.547658 0.696690
vt 0.546771 0.696835
vt 0.545860 0.696883
vt 0.534222 0.696883
vt 0.533312 0.696835
vt 0.532424 0.696690
vt 0.531581 0.696453
vt 0.530802 0.696130
vt 0.530108 0.695728
vt 0.529515 0.695258
vt 0.529038 0.694730
vt 0.528689 0.694158
vt 0.528476 0.693557
vt 0.577044 0.489576
vt 0.577954 0.489625
vt 0.578841 0.489769
vt 0.579685 0.490006
vt 0.580463 0.490329
vt 0.581158 0.490731
vt 0.581750 0.491202
vt 0.582227 0.491729
vt 0.582577 0.492301
vt 0.582790 0.492903
vt 0.582862 0.493520
vt 0.582862 0.692940
vt 0.582790 0.693557
vt 0.582577 0.694158
vt 0.582227 0.694730
vt 0.581750 0.695258
vt 0.581158 0.695728
vt 0.580463 0.696130
vt 0.579685 0.696453
vt 0.578841 0.696690
vt 0.577954 0.696835
vt 0.577044 0.696883
vt 0.565405 0.696883
vt 0.564495 0.696835
vt 0.563607 0.696690
vt 0.562764 0.696453
vt 0.561986 0.696130
vt 0.561291 0.695728
vt 0.560698 0.695258
vt 0.560221 0.694730
vt 0.559872 0.694158
vt 0.559659 0.693557
vt 0.559587 0.692940
vt 0.559587 0.493520
vt 0.559659 0.492903
vt 0.559872 0.492301
vt 0.560221 0.491729
vt 0.560698 0.491202
vt 0.561291 0.490731
vt 0.561986 0.490329
vt 0.562764 0.490006
vt 0.563607 0.489769
vt 0.564495 0.489625
vt 0.565405 0.489576
vt 0.606362 0.493664
vt 0.811110 0.493664
vt 0.811110 0.698412
vt 0.606362 0.698412
vt 0.395875 0.235713
vt 0.395875 0.009939
vt 0.621649 0.009939
vt 0.621649 0.235713
vt 0.623572 0.001874
vt 0.623572 0.243778
vt 0.629750 0.243778
vt 0.629750 0.001874
vt 0.644987 0.001874
vt 0.644987 0.243778
vt 0.663815 0.001874
vt 0.663815 0.243778
vt 0.670678 0.243778
vt 0.670678 0.001874
vt 0.685915 0.001874
vt 0.685915 0.243778
vt 0.736115 0.001874
vt 0.736115 0.243778
vt 0.773972 0.243778
vt 0.773972 0.001874
vt 0.824171 0.001874
vt 0.824171 0.243778
vt 0.001992 0.504488
vt 0.227766 0.504488
vt 0.217253 0.515001
vt 0.012505 0.515001
vt 0.227766 0.730262
vt 0.217253 0.719749
vt 0.001992 0.730262
vt 0.012505 0.719749
vt 0.830492 0.243778
vt 0.830492 0.001874
vt 0.849320 0.001874
vt 0.849320 0.243778
vt 0.485843 0.504535
vt 0.485843 0.721094
vt 0.475782 0.721094
vt 0.475782 0.504535
vt 0.520924 0.504535
vt 0.520924 0.721094
vt 0.510864 0.721094
vt 0.510864 0.504535
vt 0.137320 0.740423
vt 0.139243 0.740423
vt 0.139243 0.832084
vt 0.137320 0.832084
vt 0.137320 0.739342
vt 0.139243 0.739342
vt 0.137320 0.833163
vt 0.139243 0.833163
vt 0.137320 0.738286
vt 0.139243 0.738286
vt 0.137320 0.834214
vt 0.139243 0.834214
vt 0.137320 0.737282
vt 0.139243 0.737282
vt 0.137320 0.835212
vt 0.139243 0.835212
vt 0.137320 0.736356
vt 0.139243 0.736356
vt 0.137320 0.836132
vt 0.139243 0.836132
vt 0.137320 0.735529
vt 0.139243 0.735529
vt 0.137320 0.836953
vt 0.139243 0.836953
vt 0.137320 0.734822
vt 0.139243 0.734822
vt 0.137320 0.837653
vt 0.139243 0.837653
vt 0.137320 0.734254
vt 0.139243 0.734254
vt 0.137320 0.838217
vt 0.139243 0.838217
vt 0.129262 0.740423
vt 0.131185 0.740423
vt 0.131185 0.832084
vt 0.129262 0.832084
vt 0.129262 0.739342
vt 0.131185 0.739342
vt 0.129262 0.833163
vt 0.131185 0.833163
vt 0.129262 0.738286
vt 0.131185 0.738286
vt 0.129262 0.834214
vt 0.131185 0.834214
vt 0.129262 0.737282
vt 0.131185 0.737282
vt 0.129262 0.835212
vt 0.131185 0.835212
vt 0.129262 0.736356
vt 0.131185 0.736356
vt 0.129262 0.836132
vt 0.131185 0.836132
vt 0.129262 0.735529
vt 0.131185 0.735529
vt 0.129262 0.836953
vt 0.131185 0.836953
vt 0.129262 0.734822
vt 0.131185 0.734822
vt 0.129262 0.837653
vt 0.131185 0.837653
vt 0.129262 0.734254
vt 0.131185 0.734254
vt 0.129262 0.838217
vt 0.131185 0.838217
vt 0.590770 0.492767
vt 0.592291 0.492767
vt 0.592291 0.692187
vt 0.590770 0.692187
vt 0.590770 0.492150
vt 0.592291 0.492150
vt 0.590770 0.692804
vt 0.592291 0.692804
vt 0.590770 0.491548
vt 0.592291 0.491548
vt 0.590770 0.693405
vt 0.592291 0.693405
vt 0.590770 0.490976
vt 0.592291 0.490976
vt 0.590770 0.693977
vt 0.592291 0.693977
vt 0.590770 0.490449
vt 0.592291 0.490449
vt 0.590770 0.694505
vt 0.592291 0.694505
vt 0.590770 0.489978
vt 0.592291 0.489978
vt 0.590770 0.694975
vt 0.592291 0.694975
vt 0.590770 0.489576
vt 0.592291 0.489576
vt 0.590770 0.695377
vt 0.592291 0.695377
vt 0.598566 0.492767
vt 0.600086 0.492767
vt 0.600086 0.692187
vt 0.598566 0.692187
vt 0.598566 0.492150
vt 0.600086 0.492150
vt 0.598566 0.692804
vt 0.600086 0.692804
vt 0.598566 0.491548
vt 0.600086 0.491548
vt 0.598566 0.693405
vt 0.600086 0.693405
vt 0.598566 0.490976
vt 0.600086 0.490976
vt 0.598566 0.693977
vt 0.600086 0.693977
vt 0.598566 0.490449
vt 0.600086 0.490449
vt 0.598566 0.694505
vt 0.600086 0.694505
vt 0.598566 0.489978
vt 0.600086 0.489978
vt 0.598566 0.694975
vt 0.600086 0.694975
vt 0.598566 0.489576
vt 0.600086 0.489576
vt 0.598566 0.695377
vt 0.600086 0.695377
vt 0.234112 0.504535
vt 0.450672 0.504535
vt 0.450672 0.721094
vt 0.234112 0.721094
vt 0.060376 0.500497
vt 0.060376 0.263123
vt 0.286150 0.263123
vt 0.286150 0.500497
vt 0.380248 0.257297
vt 0.380248 0.019481
vt 0.388313 0.001874
vt 0.388313 0.258736
vt 0.154474 0.019481
vt 0.146409 0.001874
vt 0.154474 0.257297
vt 0.146409 0.258736
vt 0.743184 0.001874
vt 0.743184 0.243778
vt 0.742789 0.243778
vt 0.742789 0.001874
vt 0.765938 0.001874
vt 0.765938 0.243778
vt 0.750585 0.243778
vt 0.750585 0.001874
vt 0.998008 0.702404
vt 0.998008 0.907152
vt 0.802858 0.907152
vt 0.802858 0.702404
vt 0.595438 0.725086
vt 0.595438 0.929834
vt 0.400288 0.929834
vt 0.400288 0.725086
vt 0.756105 0.247769
vt 0.998008 0.247769
vt 0.985336 0.260441
vt 0.768776 0.260441
vt 0.998008 0.489672
vt 0.985336 0.477001
vt 0.756105 0.489672
vt 0.768776 0.477001
vt 0.105893 0.736558
vt 0.107816 0.736558
vt 0.107816 0.746655
vt 0.105893 0.746655
vt 0.105893 0.735765
vt 0.107816 0.735765
vt 0.105893 0.747450
vt 0.107816 0.747450
vt 0.105893 0.734990
vt 0.107816 0.734990
vt 0.105893 0.748225
vt 0.107816 0.748225
vt 0.105893 0.734254
vt 0.107816 0.734254
vt 0.105893 0.748962
vt 0.107816 0.748962
vt 0.097835 0.736558
vt 0.099757 0.736558
vt 0.099757 0.746655
vt 0.097835 0.746655
vt 0.097835 0.735765
vt 0.099757 0.735765
vt 0.097835 0.747450
vt 0.099757 0.747450
vt 0.097835 0.734990
vt 0.099757 0.734990
vt 0.097835 0.748225
vt 0.099757 0.748225
vt 0.097835 0.734254
vt 0.099757 0.734254
vt 0.097835 0.748962
vt 0.099757 0.748962
vt 0.121606 0.737674
vt 0.123127 0.737674
vt 0.123127 0.749312
vt 0.121606 0.749312
vt 0.121606 0.736763
vt 0.123127 0.736763
vt 0.121606 0.750222
vt 0.123127 0.750222
vt 0.121606 0.735876
vt 0.123127 0.735876
vt 0.121606 0.751110
vt 0.123127 0.751110
vt 0.121606 0.735032
vt 0.123127 0.735032
vt 0.121606 0.751953
vt 0.123127 0.751953
vt 0.121606 0.734254
vt 0.123127 0.734254
vt 0.121606 0.752732
vt 0.123127 0.752732
vt 0.113951 0.737674
vt 0.115471 0.737674
vt 0.115471 0.749312
vt 0.113951 0.749312
vt 0.113951 0.736763
vt 0.115471 0.736763
vt 0.113951 0.750222
vt 0.115471 0.750222
vt 0.113951 0.735876
vt 0.115471 0.735876
vt 0.113951 0.751110
vt 0.115471 0.751110
vt 0.113951 0.735032
vt 0.115471 0.735032
vt 0.113951 0.751953
vt 0.115471 0.751953
vt 0.113951 0.734254
vt 0.115471 0.734254
vt 0.113951 0.752732
vt 0.115471 0.752732
vt 0.524195 0.485143
vt 0.524195 0.247769
vt 0.749969 0.247769
vt 0.749969 0.485585
vt 0.292286 0.500543
vt 0.292286 0.262727
vt 0.518060 0.262727
vt 0.518060 0.500102
vt 0.001992 0.258736
vt 0.001992 0.001874
vt 0.017230 0.001874
vt 0.017230 0.243778
vt 0.036058 0.001874
vt 0.036058 0.243778
vt 0.017230 0.259131
vt 0.001992 0.259131
vt 0.067429 0.243778
vt 0.067429 0.259131
vt 0.139735 0.001874
vt 0.139735 0.258736
vt 0.124498 0.243778
vt 0.124498 0.001874
vt 0.139735 0.259131
vt 0.124498 0.259131
vt 0.105669 0.243778
vt 0.105669 0.001874
vt 0.074298 0.259131
vt 0.074298 0.243778
vt 0.796723 0.702404
vt 0.796723 0.907152
vt 0.601573 0.907152
vt 0.601573 0.702404
vt 0.394153 0.734254
vt 0.394153 0.939002
vt 0.199003 0.939002
vt 0.199003 0.734254
vt 0.458242 0.721094
vt 0.458242 0.504535
vt 0.468302 0.504535
vt 0.468302 0.721094
vt 0.503383 0.504535
vt 0.503383 0.721094
vt 0.493323 0.721094
vt 0.493323 0.504535
vn 0.000000 -0.007766 0.999970
vn 0.000000 -0.007766 0.999970
vn 0.000000 0.007841 0.999969
vn 0.000000 0.007841 0.999969
vn 0.000000 0.999992 -0.003941
vn 0.000000 0.999992 -0.003941
vn 0.000000 0.999986 -0.005289
vn 0.000000 0.999986 -0.005289
vn 0.000000 0.007766 -0.999970
vn 0.000000 0.007766 -0.999970
vn 0.000000 -0.007841 -0.999969
vn 0.000000 -0.007841 -0.999969
vn 0.000000 -0.999992 0.003941
vn 0.000000 -0.999992 0.003941
vn 0.000000 -0.999986 0.005290
vn 0.000000 -0.999986 0.005290
vn 0.000000 -0.209639 0.977779
vn 0.000000 -0.209639 0.977779
vn 0.000000 -0.402559 0.915394
vn 0.000000 -0.402559 0.915394
vn 0.000000 -0.567552 0.823338
vn 0.000000 -0.567552 0.823338
vn 0.000000 -0.700759 0.713398
vn 0.000000 -0.700759 0.713398
vn 0.000000 -0.803713 0.595017
vn 0.000000 -0.803713 0.595017
vn 0.000000 -0.880366 0.474295
vn 0.000000 -0.880366 0.474295
vn 0.000000 -0.935109 0.354360
vn 0.000000 -0.935109 0.354360
vn 0.000000 -0.971689 0.236265
vn 0.000000 -0.971689 0.236265
vn 0.000000 -0.992784 0.119917
vn 0.000000 -0.992784 0.119917
vn 0.000000 0.993757 0.111567
vn 0.000000 0.993757 0.111567
vn 0.000000 0.973490 0.228732
vn 0.000000 0.973490 0.228732
vn 0.000000 0.937616 0.347674
vn 0.000000 0.937616 0.347674
vn 0.000000 0.883458 0.468511
vn 0.000000 0.883458 0.468511
vn 0.000000 0.807263 0.590192
vn 0.000000 0.807263 0.590192
vn 0.000000 0.704529 0.709675
vn 0.000000 0.704529 0.709675
vn 0.000000 0.571143 0.820851
vn 0.000000 0.571143 0.820851
vn 0.000000 0.405449 0.914118
vn 0.000000 0.405449 0.914118
vn 0.000000 0.211272 0.977427
vn 0.000000 0.211272 0.977427
vn 0.000000 0.209639 -0.977779
vn 0.000000 0.209639 -0.977779
vn 0.000000 0.402547 -0.915400
vn 0.000000 0.402547 -0.915400
vn 0.000000 0.567552 -0.823338
vn 0.000000 0.567552 -0.823338
vn 0.000000 0.700751 -0.713406
vn 0.000000 0.700751 -0.713406
vn 0.000000 0.803699 -0.595036
vn 0.000000 0.803699 -0.595036
vn 0.000000 0.880378 -0.474272
vn 0.000000 0.880378 -0.474272
vn 0.000000 0.935118 -0.354335
vn 0.000000 0.935118 -0.354335
vn 0.000000 0.971685 -0.236278
vn 0.000000 0.971685 -0.236278
vn 0.000000 0.992784 -0.119918
vn 0.000000 0.992784 -0.119918
vn 0.000000 -0.993756 -0.111579
vn 0.000000 -0.993756 -0.111579
vn 0.000000 -0.973484 -0.228755
vn 0.000000 -0.973484 -0.228755
vn 0.000000 -0.937624 -0.347651
vn 0.000000 -0.937624 -0.347651
vn 0.000000 -0.883469 -0.468489
vn 0.000000 -0.883469 -0.468489
vn 0.000000 -0.807256 -0.590202
vn 0.000000 -0.807256 -0.590202
vn 0.000000 -0.704537 -0.709668
vn 0.000000 -0.704537 -0.709668
vn 0.000000 -0.571135 -0.820856
vn 0.000000 -0.571135 -0.820856
vn 0.000000 -0.405437 -0.914123
vn 0.000000 -0.405437 -0.914123
vn 0.000000 -0.211279 -0.977426
vn 0.000000 -0.211279 -0.977426
vn -1.000000 0.000000 0.000000
vn -1.000000 0.000000 0.000000
vn -1.000000 0.000000 0.000000
vn -1.000000 0.000000 0.000000
vn -1.000000 0.000000 0.000000
vn -1.000000 0.000000 0.000000
vn -1.000000 0.000000 0.000000
vn -1.000000 0.000000 0.000000
vn -1.000000 0.000000 0.000000
vn -1.000000 0.000000 0.000000
vn -1.000000 0.000000 0.000000
vn -1.000000 0.000000 0.000000
vn -1.000000 0.000000 0.000000
vn -1.000000 0.000000 0.000000
vn -1.000000 0.000000 0.000000
vn -1.000000 0.000000 0.000000
vn -1.000000 0.000000 0.000000
vn -1.000000 0.000000 0.000000
vn -1.000000 0.000000 0.000000
vn -1.000000 0.000000 0.000000
vn -1.000000 0.000000 0.000000
vn -1.000000 0.000000 0.000000
vn -1.000000 0.000000 0.000000
vn -1.000000 0.000000 0.000000
vn -1.000000 0.000000 0.000000
vn -1.000000 0.000000 0.000000
vn -1.000000 0.000000 0.000000
vn -1.000000 0.000000 0.000000
vn -1.000000 0.000000 0.000000
vn -1.000000 0.000000 0.000000
vn -1.000000 0.000000 0.000000
vn -1.000000 0.000000 0.000000
vn -1.000000 0.000000 0.000000
vn -1.000000 0.000000 0.000000
vn -1.000000 0.000000 0.000000
vn -1.000000 0.000000 0.000000
vn -1.000000 0.000000 0.000000
vn -1.000000 0.000000 0.000000
vn -1.000000 0.000000 0.000000
vn -1.000000 0.000000 0.000000
vn -1.000000 0.000000 0.000000
vn -1.000000 0.000000 0.000000
vn -1.000000 0.000000 0.000000
vn -1.000000 0.000000 0.000000
vn 1.000000 -0.000001 0.000000
vn 1.000000 -0.000001 0.000000
vn 1.000000 -0.000001 0.000000
vn 1.000000 -0.000001 0.000000
vn 1.000000 -0.000001 0.000000
vn 1.000000 -0.000001 0.000000
vn 1.000000 -0.000001 0.000000
vn 1.000000 -0.000001 0.000000
vn 1.000000 -0.000001 0.000000
vn 1.000000 -0.000001 0.000000
vn 1.000000 -0.000001 0.000000
vn 1.000000 -0.000001 0.000000
vn 1.000000 -0.000001 0.000000
vn 1.000000 -0.000001 0.000000
vn 1.000000 -0.000001 0.000000
vn 1.000000 -0.000001 0.000000
vn 1.000000 -0.000001 0.000000
vn 1.000000 -0.000001 0.000000
vn 1.000000 -0.000001 0.000000
vn 1.000000 -0.000001 0.000000
vn 1.000000 -0.000001 0.000000
vn 1.000000 -0.000001 0.000000
vn 1.000000 -0.000001 0.000000
vn 1.000000 -0.000001 0.000000
vn 1.000000 -0.000001 0.000000
vn 1.000000 -0.000001 0.000000
vn 1.000000 -0.000001 0.000000
vn 1.000000 -0.000001 0.000000
vn 1.000000 -0.000001 0.000000
vn 1.000000 -0.000001 0.000000
vn 1.000000 -0.000001 0.000000
vn 1.000000 -0.000001 0.000000
vn 1.000000 -0.000001 0.000000
vn 1.000000 -0.000001 0.000000
vn 1.000000 -0.000001 0.000000
vn 1.000000 -0.000001 0.000000
vn 1.000000 -0.000001 0.000000
vn 1.000000 -0.000001 0.000000
vn 1.000000 -0.000001 0.000000
vn 1.000000 -0.000001 0.000000
vn 1.000000 -0.000001 0.000000
vn 1.000000 -0.000001 0.000000
vn 1.000000 -0.000001 0.000000
vn 1.000000 -0.000001 0.000000
vn 0.000000 -0.003868 0.999993
vn 0.000000 -0.003868 0.999993
vn 0.000000 0.003868 0.999993
vn 0.000000 0.003868 0.999993
vn 0.000000 1.000000 0.000358
vn 0.000000 1.000000 0.000358
vn 0.000000 1.000000 -0.000358
vn 0.000000 1.000000 -0.000358
vn 0.000000 0.003868 -0.999993
vn 0.000000 0.003868 -0.999993
vn 0.000000 -0.003868 -0.999993
vn 0.000000 -0.003868 -0.999993
vn 0.000000 -1.000000 -0.000358
vn 0.000000 -1.000000 -0.000358
vn 0.000000 -1.000000 0.000358
vn 0.000000 -1.000000 0.000358
vn 0.000000 -0.106742 0.994287
vn 0.000000 -0.106742 0.994287
vn 0.000000 -0.215077 0.976597
vn 0.000000 -0.215077 0.976597
vn 0.000000 -0.326420 0.945225
vn 0.000000 -0.326420 0.945225
vn 0.000000 -0.441794 0.897116
vn 0.000000 -0.441794 0.897116
vn 0.000000 -0.561075 0.827765
vn 0.000000 -0.561075 0.827765
vn 0.000000 -0.682125 0.731236
vn 0.000000 -0.682125 0.731236
vn 0.000000 -0.799317 0.600909
vn 0.000000 -0.799317 0.600909
vn 0.000000 -0.901748 0.432261
vn 0.000000 -0.901748 0.432261
vn 0.000000 -0.973767 0.227547
vn 0.000000 -0.973767 0.227547
vn 0.000000 0.973767 0.227547
vn 0.000000 0.973767 0.227547
vn 0.000000 0.901743 0.432272
vn 0.000000 0.901743 0.432272
vn 0.000000 0.799317 0.600909
vn 0.000000 0.799317 0.600909
vn 0.000000 0.682137 0.731225
vn 0.000000 0.682137 0.731225
vn 0.000000 0.561075 0.827765
vn 0.000000 0.561075 0.827765
vn 0.000000 0.441794 0.897116
vn 0.000000 0.441794 0.897116
vn 0.000000 0.326420 0.945225
vn 0.000000 0.326420 0.945225
vn 0.000000 0.215077 0.976597
vn 0.000000 0.215077 0.976597
vn 0.000000 0.106738 0.994287
vn 0.000000 0.106738 0.994287
vn 0.000000 0.106738 -0.994287
vn 0.000000 0.106738 -0.994287
vn 0.000000 0.215077 -0.976597
vn 0.000000 0.215077 -0.976597
vn 0.000000 0.326424 -0.945223
vn 0.000000 0.326424 -0.945223
vn 0.000000 0.441797 -0.897115
vn 0.000000 0.441797 -0.897115
vn 0.000000 0.561073 -0.827766
vn 0.000000 0.561073 -0.827766
vn 0.000000 0.682137 -0.731225
vn 0.000000 0.682137 -0.731225
vn 0.000000 0.799317 -0.600909
vn 0.000000 0.799317 -0.600909
vn 0.000000 0.901743 -0.432272
vn 0.000000 0.901743 -0.432272
vn 0.000000 0.973767 -0.227547
vn 0.000000 0.973767 -0.227547
vn 0.000000 -0.973767 -0.227547
vn 0.000000 -0.973767 -0.227547
vn 0.000000 -0.901748 -0.432261
vn 0.000000 -0.901748 -0.432261
vn 0.000000 -0.799317 -0.600909
vn 0.000000 -0.799317 -0.600909
vn 0.000000 -0.682125 -0.731236
vn 0.000000 -0.682125 -0.731236
vn 0.000000 -0.561073 -0.827766
vn 0.000000 -0.561073 -0.827766
vn 0.000000 -0.441797 -0.897115
vn 0.000000 -0.441797 -0.897115
vn 0.000000 -0.326424 -0.945223
vn 0.000000 -0.326424 -0.945223
vn 0.000000 -0.215077 -0.976597
vn 0.000000 -0.215077 -0.976597
vn 0.000000 -0.106742 -0.994287
vn 0.000000 -0.106742 -0.994287
vn -1.000000 -0.000000 0.000000
vn -1.000000 -0.000000 0.000000
vn -1.000000 -0.000000 0.000000
vn -1.000000 -0.000000 0.000000
vn -1.000000 -0.000000 0.000000
vn -1.000000 -0.000000 0.000000
vn -1.000000 -0.000000 0.000000
vn -1.000000 -0.000000 0.000000
vn -1.000000 -0.000000 0.000000
vn -1.000000 -0.000000 0.000000
vn -1.000000 -0.000000 0.000000
vn -1.000000 -0.000000 0.000000
vn -1.000000 -0.000000 0.000000
vn -1.000000 -0.000000 0.000000
vn -1.000000 -0.000000 0.000000
vn -1.000000 -0.000000 0.000000
vn -1.000000 -0.000000 0.000000
vn -1.000000 -0.000000 0.000000
vn -1.000000 -0.000000 0.000000
vn -1.000000 -0.000000 0.000000
vn -1.000000 -0.000000 0.000000
vn -1.000000 -0.000000 0.000000
vn -1.000000 -0.000000 0.000000
vn -1.000000 -0.000000 0.000000
vn -1.000000 -0.000000 0.000000
vn -1.000000 -0.000000 0.000000
vn -1.000000 -0.000000 0.000000
vn -1.000000 -0.000000 0.000000
vn -1.000000 -0.000000 0.000000
vn -1.000000 -0.000000 0.000000
vn -1.000000 -0.000000 0.000000
vn -1.000000 -0.000000 0.000000
vn -1.000000 -0.000000 0.000000
vn -1.000000 -0.000000 0.000000
vn -1.000000 -0.000000 0.000000
vn -1.000000 -0.000000 0.000000
vn -1.000000 -0.000000 0.000000
vn -1.000000 -0.000000 0.000000
vn -1.000000 -0.000000 0.000000
vn -1.000000 -0.000000 0.000000
vn -1.000000 -0.000000 0.000000
vn -1.000000 -0.000000 0.000000
vn -1.000000 -0.000000 0.000000
vn -1.000000 -0.000000 0.000000
vn 1.000000 -0.000000 0.000000
vn 1.000000 -0.000000 0.000000
vn 1.000000 -0.000000 0.000000
vn 1.000000 -0.000000 0.000000
vn 1.000000 -0.000000 0.000000
vn 1.000000 -0.000000 0.000000
vn 1.000000 -0.000000 0.000000
vn 1.000000 -0.000000 0.000000
vn 1.000000 -0.000000 0.000000
vn 1.000000 -0.000000 0.000000
vn 1.000000 -0.000000 0.000000
vn 1.000000 -0.000000 0.000000
vn 1.000000 -0.000000 0.000000
vn 1.000000 -0.000000 0.000000
vn 1.000000 -0.000000 0.000000
vn 1.000000 -0.000000 0.000000
vn 1.000000 -0.000000 0.000000
vn 1.000000 -0.000000 0.000000
vn 1.000000 -0.000000 0.000000
vn 1.000000 -0.000000 0.000000
vn 1.000000 -0.000000 0.000000
vn 1.000000 -0.000000 0.000000
vn 1.000000 -0.000000 0.000000
vn 1.000000 -0.000000 0.000000
vn 1.000000 -0.000000 0.000000
vn 1.000000 -0.000000 0.000000
vn 1.000000 -0.000000 0.000000
vn 1.000000 -0.000000 0.000000
vn 1.000000 -0.000000 0.000000
vn 1.000000 -0.000000 0.000000
vn 1.000000 -0.000000 0.000000
vn 1.000000 -0.000000 0.000000
vn 1.000000 -0.000000 0.000000
vn 1.000000 -0.000000 0.000000
vn 1.000000 -0.000000 0.000000
vn 1.000000 -0.000000 0.000000
vn 1.000000 -0.000000 0.000000
vn 1.000000 -0.000000 0.000000
vn 1.000000 -0.000000 0.000000
vn 1.000000 -0.000000 0.000000
vn 1.000000 -0.000000 0.000000
vn 1.000000 -0.000000 0.000000
vn 1.000000 -0.000000 0.000000
vn 1.000000 -0.000000 0.000000
vn 0.000000 0.000000 1.000000
vn 0.000000 0.000000 1.000000
vn 0.000000 0.000000 1.000000
vn 0.000000 0.000000 1.000000
vn 0.000000 1.000000 0.000000
vn 0.000000 1.000000 0.000000
vn 0.000000 1.000000 0.000000
vn 0.000000 1.000000 0.000000
vn 0.000000 0.000000 -1.000000
vn 0.000000 0.000000 -1.000000
vn 0.000000 0.000000 -1.000000
vn 0.000000 0.000000 -1.000000
vn 0.000000 -1.000000 0.000000
vn 0.000000 -1.000000 0.000000
vn 0.000000 -1.000000 0.000000
vn 0.000000 -1.000000 0.000000
vn 1.000000 0.000000 0.000000
vn 1.000000 0.000000 0.000000
vn 1.000000 0.000000 0.000000
vn 1.000000 0.000000 0.000000
vn -0.999998 -0.001956 0.000000
vn -0.999998 -0.001956 0.000000
vn -0.999998 -0.001956 0.000000
vn -0.999998 -0.001956 0.000000
vn 0.000000 -0.972743 0.231887
vn 0.000000 -0.972743 0.231887
vn 0.000000 -0.972743 0.231887
vn 0.000000 -0.972743 0.231887
vn 0.108548 -0.994091 0.000000
vn 0.108548 -0.994091 0.000000
vn 0.108548 -0.994091 0.000000
vn 0.108548 -0.994091 0.000000
vn 0.000000 -0.972743 -0.231887
vn 0.000000 -0.972743 -0.231888
vn 0.000000 -0.972743 -0.231887
vn 0.000000 -0.972743 -0.231888
vn -0.800498 -0.599336 0.000000
vn -0.800498 -0.599336 0.000000
vn -0.800498 -0.599336 0.000000
vn -0.800498 -0.599336 0.000000
vn 0.000000 0.000000 1.000000
vn 0.000000 0.000000 1.000000
vn 0.000000 0.000000 1.000000
vn 0.000000 0.000000 1.000000
vn 1.000000 0.000000 0.000000
vn 1.000000 0.000000 0.000000
vn 1.000000 0.000000 0.000000
vn 1.000000 0.000000 0.000000
vn 0.000000 0.000000 -1.000000
vn 0.000000 0.000000 -1.000000
vn 0.000000 0.000000 -1.000000
vn 0.000000 0.000000 -1.000000
vn -1.000000 0.000000 0.000000
vn -1.000000 0.000000 0.000000
vn -1.000000 0.000000 0.000000
vn -1.000000 0.000000 0.000000
vn 0.000000 -1.000000 0.000000
vn 0.000000 -1.000000 0.000000
vn 0.000000 -1.000000 0.000000
vn 0.000000 -1.000000 0.000000
vn 0.000000 0.000000 1.000000
vn 0.000000 0.000000 1.000000
vn 0.000000 0.000000 1.000000
vn 0.000000 0.000000 1.000000
vn 0.000000 1.000000 0.000000
vn 0.000000 1.000000 0.000000
vn 0.000000 1.000000 0.000000
vn 0.000000 1.000000 0.000000
vn 0.000000 0.000000 -1.000000
vn 0.000000 0.000000 -1.000000
vn 0.000000 0.000000 -1.000000
vn 0.000000 0.000000 -1.000000
vn 1.000000 0.000000 0.000000
vn 1.000000 0.000000 0.000000
vn 1.000000 0.000000 0.000000
vn 1.000000 0.000000 0.000000
vn 0.000000 0.000000 -1.000000
vn 0.000000 0.000000 -1.000000
vn 0.000000 0.000000 -1.000000
vn 0.000000 0.000000 -1.000000
vn -1.000000 0.000000 0.000000
vn -1.000000 0.000000 0.000000
vn -1.000000 0.000000 0.000000
vn -1.000000 0.000000 0.000000
vn 0.000000 0.000000 1.000000
vn 0.000000 0.000000 1.000000
vn 0.000000 0.000000 1.000000
vn 0.000000 0.000000 1.000000
vn 1.000000 0.000000 0.000000
vn 1.000000 0.000000 0.000000
vn 1.000000 0.000000 0.000000
vn 1.000000 0.000000 0.000000
vn 1.000000 0.000000 0.000000
vn 1.000000 0.000000 0.000000
vn 1.000000 0.000000 0.000000
vn 1.000000 0.000000 0.000000
vn 1.000000 0.000000 0.000000
vn 1.000000 0.000000 0.000000
vn 1.000000 0.000000 0.000000
vn 1.000000 0.000000 0.000000
vn 1.000000 0.000000 -0.000000
vn 1.000000 0.000000 -0.000000
vn 1.000000 0.000000 -0.000000
vn 1.000000 0.000000 -0.000000
vn 0.000000 1.000000 0.000000
vn 0.000000 1.000000 0.000000
vn 0.000000 1.000000 0.000000
vn 0.000000 1.000000 0.000000
vn 0.000000 0.000000 1.000000
vn 0.000000 0.000000 1.000000
vn 0.000000 0.000000 1.000000
vn 0.000000 0.000000 1.000000
vn 0.000000 -1.000000 0.000000
vn 0.000000 -1.000000 0.000000
vn 0.000000 -1.000000 0.000000
vn 0.000000 -1.000000 0.000000
vn 0.000000 0.000000 -1.000000
vn 0.000000 0.000000 -1.000000
vn 0.000000 0.000000 -1.000000
vn 0.000000 0.000000 -1.000000
vn 0.000000 0.000000 1.000000
vn 0.000000 0.000000 1.000000
vn 0.000000 0.000000 1.000000
vn 0.000000 0.000000 1.000000
vn 1.000000 0.000000 0.000000
vn 1.000000 0.000000 0.000000
vn 1.000000 0.000000 0.000000
vn 1.000000 0.000000 0.000000
vn 0.000000 0.000000 -1.000000
vn 0.000000 0.000000 -1.000000
vn 0.000000 0.000000 -1.000000
vn 0.000000 0.000000 -1.000000
vn -1.000000 0.000000 0.000000
vn -1.000000 0.000000 0.000000
vn -1.000000 0.000000 0.000000
vn -1.000000 0.000000 0.000000
vn 0.000000 1.000000 -0.000000
vn 0.000000 1.000000 -0.000000
vn 0.000000 1.000000 -0.000000
vn 0.000000 1.000000 -0.000000
vn 0.000000 1.000000 0.000000
vn 0.000000 1.000000 0.000000
vn 0.000000 1.000000 0.000000
vn 0.000000 1.000000 0.000000
vn 0.000000 1.000000 0.000000
vn 0.000000 1.000000 0.000000
vn 0.000000 1.000000 0.000000
vn 0.000000 1.000000 0.000000
vn 0.000000 1.000000 0.000000
vn 0.000000 1.000000 0.000000
vn 0.000000 1.000000 0.000000
vn 0.000000 1.000000 0.000000
vn 0.000000 0.000000 -1.000000
vn 0.000000 0.000000 -1.000000
vn 0.000000 0.000000 -1.000000
vn 0.000000 0.000000 -1.000000
vn -1.000000 0.000000 0.000000
vn -1.000000 0.000000 0.000000
vn -1.000000 0.000000 0.000000
vn -1.000000 0.000000 0.000000
vn 0.000000 0.000000 1.000000
vn 0.000000 0.000000 1.000000
vn 0.000000 0.000000 1.000000
vn 0.000000 0.000000 1.000000
vn 1.000000 0.000000 0.000000
vn 1.000000 0.000000 0.000000
vn 1.000000 0.000000 0.000000
vn 1.000000 0.000000 0.000000
s 1
g pCube8
usemtl initialShadingGroup
f 11/383/1 13/384/2 44/385/3 24/386/4
f 23/223/5 34/224/6 56/225/7 45/226/8
f 55/399/9 57/400/10 88/401/11 68/402/12
f 67/255/13 78/256/14 12/257/15 1/258/16
f 11/383/1 10/387/17 14/388/18 13/384/2
f 10/387/17 9/391/19 15/392/20 14/388/18
f 9/391/19 8/395/21 16/396/22 15/392/20
f 8/285/21 7/281/23 17/282/24 16/286/22
f 7/281/23 6/277/25 18/278/26 17/282/24
f 6/277/25 5/273/27 19/274/28 18/278/26
f 5/273/27 4/269/29 20/270/30 19/274/28
f 4/269/29 3/265/31 21/266/32 20/270/30
f 3/265/31 2/261/33 22/262/34 21/266/32
f 2/261/33 1/258/16 12/257/15 22/262/34
f 23/223/5 33/227/35 35/228/36 34/224/6
f 33/227/35 32/231/37 36/232/38 35/228/36
f 32/231/37 31/235/39 37/236/40 36/232/38
f 31/235/39 30/239/41 38/240/42 37/236/40
f 30/239/41 29/243/43 39/244/44 38/240/42
f 29/243/43 28/247/45 40/248/46 39/244/44
f 28/247/45 27/251/47 41/252/48 40/248/46
f 27/397/47 26/393/49 42/394/50 41/398/48
f 26/393/49 25/389/51 43/390/52 42/394/50
f 25/389/51 24/386/4 44/385/3 43/390/52
f 55/399/9 54/403/53 58/404/54 57/400/10
f 54/403/53 53/407/55 59/408/56 58/404/54
f 53/407/55 52/411/57 60/412/58 59/408/56
f 52/253/57 51/249/59 61/250/60 60/254/58
f 51/249/59 50/245/61 62/246/62 61/250/60
f 50/245/61 49/241/63 63/242/64 62/246/62
f 49/241/63 48/237/65 64/238/66 63/242/64
f 48/237/65 47/233/67 65/234/68 64/238/66
f 47/233/67 46/229/69 66/230/70 65/234/68
f 46/229/69 45/226/8 56/225/7 66/230/70
f 67/255/13 77/259/71 79/260/72 78/256/14
f 77/259/71 76/263/73 80/264/74 79/260/72
f 76/263/73 75/267/75 81/268/76 80/264/74
f 75/267/75 74/271/77 82/272/78 81/268/76
f 74/271/77 73/275/79 83/276/80 82/272/78
f 73/275/79 72/279/81 84/280/82 83/276/80
f 72/279/81 71/283/83 85/284/84 84/280/82
f 71/413/83 70/409/85 86/410/86 85/414/84
f 70/409/85 69/405/87 87/406/88 86/410/86
f 69/405/87 68/402/12 88/401/11 87/406/88
s off
f 67/1/89 1/2/90 2/3/91 3/4/92 4/5/93 5/6/94 6/7/95 7/8/96 8/9/97 9/10/98 10/11/99 11/12/100 24/13/101 25/14/102 26/15/103 27/16/104 28/17/105 29/18/106 30/19/107 31/20/108 32/21/109 33/22/110 23/23/111 45/24/112 46/25/113 47/26/114 48/27/115 49/28/116 50/29/117 51/30/118 52/31/119 53/32/120 54/33/121 55/34/122 68/35/123 69/36/124 70/37/125 71/38/126 72/39/127 73/40/128 74/41/129 75/42/130 76/43/131 77/44/132
f 57/45/133 58/46/134 59/47/135 60/48/136 61/49/137 62/50/138 63/51/139 64/52/140 65/53/141 66/54/142 56/55/143 34/56/144 35/57/145 36/58/146 37/59/147 38/60/148 39/61/149 40/62/150 41/63/151 42/64/152 43/65/153 44/66/154 13/67/155 14/68/156 15/69/157 16/70/158 17/71/159 18/72/160 19/73/161 20/74/162 21/75/163 22/76/164 12/77/165 78/78/166 79/79/167 80/80/168 81/81/169 82/82/170 83/83/171 84/84/172 85/85/173 86/86/174 87/87/175 88/88/176
s 5
f 99/415/177 101/416/178 132/417/179 112/418/180
f 111/287/181 122/288/182 144/289/183 133/290/184
f 143/435/185 145/436/186 176/437/187 156/438/188
f 155/315/189 166/316/190 100/317/191 89/318/192
f 99/415/177 98/419/193 102/420/194 101/416/178
f 98/419/193 97/423/195 103/424/196 102/420/194
f 97/423/195 96/427/197 104/428/198 103/424/196
f 96/427/197 95/431/199 105/432/200 104/428/198
f 95/341/199 94/337/201 106/338/202 105/342/200
f 94/337/201 93/333/203 107/334/204 106/338/202
f 93/333/203 92/329/205 108/330/206 107/334/204
f 92/329/205 91/325/207 109/326/208 108/330/206
f 91/325/207 90/321/209 110/322/210 109/326/208
f 90/321/209 89/318/192 100/317/191 110/322/210
f 111/287/181 121/291/211 123/292/212 122/288/182
f 121/291/211 120/295/213 124/296/214 123/292/212
f 120/295/213 119/299/215 125/300/216 124/296/214
f 119/299/215 118/303/217 126/304/218 125/300/216
f 118/303/217 117/307/219 127/308/220 126/304/218
f 117/307/219 116/311/221 128/312/222 127/308/220
f 116/433/221 115/429/223 129/430/224 128/434/222
f 115/429/223 114/425/225 130/426/226 129/430/224
f 114/425/225 113/421/227 131/422/228 130/426/226
f 113/421/227 112/418/180 132/417/179 131/422/228
f 143/435/185 142/439/229 146/440/230 145/436/186
f 142/439/229 141/443/231 147/444/232 146/440/230
f 141/443/231 140/447/233 148/448/234 147/444/232
f 140/447/233 139/451/235 149/452/236 148/448/234
f 139/313/235 138/309/237 150/310/238 149/314/236
f 138/309/237 137/305/239 151/306/240 150/310/238
f 137/305/239 136/301/241 152/302/242 151/306/240
f 136/301/241 135/297/243 153/298/244 152/302/242
f 135/297/243 134/293/245 154/294/246 153/298/244
f 134/293/245 133/290/184 144/289/183 154/294/246
f 155/315/189 165/319/247 167/320/248 166/316/190
f 165/319/247 164/323/249 168/324/250 167/320/248
f 164/323/249 163/327/251 169/328/252 168/324/250
f 163/327/251 162/331/253 170/332/254 169/328/252
f 162/331/253 161/335/255 171/336/256 170/332/254
f 161/335/255 160/339/257 172/340/258 171/336/256
f 160/453/257 159/449/259 173/450/260 172/454/258
f 159/449/259 158/445/261 174/446/262 173/450/260
f 158/445/261 157/441/263 175/442/264 174/446/262
f 157/441/263 156/438/188 176/437/187 175/442/264
s off
f 155/89/265 89/90/266 90/91/267 91/92/268 92/93/269 93/94/270 94/95/271 95/96/272 96/97/273 97/98/274 98/99/275 99/100/276 112/101/277 113/102/278 114/103/279 115/104/280 116/105/281 117/106/282 118/107/283 119/108/284 120/109/285 121/110/286 111/111/287 133/112/288 134/113/289 135/114/290 136/115/291 137/116/292 138/117/293 139/118/294 140/119/295 141/120/296 142/121/297 143/122/298 156/123/299 157/124/300 158/125/301 159/126/302 160/127/303 161/128/304 162/129/305 163/130/306 164/131/307 165/132/308
f 145/133/309 146/134/310 147/135/311 148/136/312 149/137/313 150/138/314 151/139/315 152/140/316 153/141/317 154/142/318 144/143/319 122/144/320 123/145/321 124/146/322 125/147/323 126/148/324 127/149/325 128/150/326 129/151/327 130/152/328 131/153/329 132/154/330 101/155/331 102/156/332 103/157/333 104/158/334 105/159/335 106/160/336 107/161/337 108/162/338 109/163/339 110/164/340 100/165/341 166/166/342 167/167/343 168/168/344 169/169/345 170/170/346 171/171/347 172/172/348 173/173/349 174/174/350 175/175/351 176/176/352
f 177/455/353 178/456/354 180/457/355 179/458/356
f 217/343/357 218/344/358 219/345/359 220/346/360
f 181/459/361 182/460/362 184/461/363 183/462/364
f 183/347/365 184/348/366 178/349/367 177/350/368
f 206/177/369 205/178/370 207/179/371 208/180/372
f 183/181/373 177/182/374 179/183/375 181/184/376
f 179/351/377 180/352/378 186/353/379 185/354/380
f 180/352/381 182/355/382 187/356/383 186/353/384
f 182/355/385 181/357/386 188/358/387 187/356/388
f 181/184/389 179/183/390 185/185/391 188/186/392
f 185/463/393 186/464/394 190/465/395 189/466/396
f 186/187/397 187/188/398 191/189/399 190/190/400
f 187/473/401 188/474/402 192/475/403 191/476/404
f 194/193/405 193/194/406 195/195/407 196/196/408
f 188/359/409 185/360/410 193/361/411 194/362/412
f 185/463/413 189/466/414 195/469/415 193/470/416
f 197/363/417 198/364/418 199/365/419 200/366/420
f 192/475/421 188/474/422 194/477/423 196/478/424
f 189/199/425 192/200/426 198/201/427 197/202/428
f 192/475/429 196/478/430 199/481/431 198/482/432
f 196/196/433 195/195/434 200/197/435 199/198/436
f 195/469/437 189/466/438 197/471/439 200/472/440
f 178/203/441 184/204/442 201/205/443 202/206/444
f 184/204/445 182/207/446 203/208/447 201/205/448
f 182/207/449 180/209/450 204/210/451 203/208/452
f 180/209/453 178/203/454 202/206/455 204/210/456
f 202/367/457 201/368/458 205/369/459 206/370/460
f 201/483/461 203/484/462 207/485/463 205/486/464
f 203/371/465 204/372/466 208/373/467 207/374/468
f 204/487/469 202/488/470 206/489/471 208/490/472
f 189/466/473 190/465/474 210/467/475 209/468/476
f 190/190/477 191/189/478 211/191/479 210/192/480
f 191/476/481 192/475/482 212/479/483 211/480/484
f 192/211/485 189/212/486 209/213/487 212/214/488
f 209/375/489 210/376/490 214/377/491 213/378/492
f 210/376/493 211/379/494 215/380/495 214/377/496
f 211/379/497 212/381/498 216/382/499 215/380/500
f 212/381/501 209/375/502 213/378/503 216/382/504
f 213/491/505 214/492/506 218/493/507 217/494/508
f 214/215/509 215/216/510 219/217/511 218/218/512
f 215/495/513 216/496/514 220/497/515 219/498/516
f 216/219/517 213/220/518 217/221/519 220/222/520
